%FSLAX25Y25*%
%MOIN*%
G70*
G01*
G75*
G04 Layer_Color=8421504*
%ADD10R,0.05512X0.11811*%
G04:AMPARAMS|DCode=11|XSize=118.11mil|YSize=55.12mil|CornerRadius=13.78mil|HoleSize=0mil|Usage=FLASHONLY|Rotation=90.000|XOffset=0mil|YOffset=0mil|HoleType=Round|Shape=RoundedRectangle|*
%AMROUNDEDRECTD11*
21,1,0.11811,0.02756,0,0,90.0*
21,1,0.09055,0.05512,0,0,90.0*
1,1,0.02756,0.01378,0.04528*
1,1,0.02756,0.01378,-0.04528*
1,1,0.02756,-0.01378,-0.04528*
1,1,0.02756,-0.01378,0.04528*
%
%ADD11ROUNDEDRECTD11*%
%ADD12R,0.05709X0.05906*%
%ADD13R,0.08268X0.12992*%
%ADD14R,0.08268X0.03543*%
%ADD15R,0.07874X0.02362*%
%ADD16R,0.02362X0.08071*%
%ADD17R,0.09000X0.02500*%
%ADD18R,0.09000X0.03500*%
%ADD19R,0.05906X0.05709*%
%ADD20R,0.08071X0.02362*%
%ADD21R,0.02362X0.07480*%
%ADD22R,0.05906X0.05709*%
%ADD23R,0.02362X0.07874*%
%ADD24R,0.11811X0.15748*%
%ADD25R,0.12992X0.08268*%
%ADD26R,0.03543X0.08268*%
%ADD27R,0.01969X0.09252*%
%ADD28R,0.07874X0.09843*%
%ADD29R,0.05709X0.05906*%
%ADD30R,0.14000X0.05500*%
%ADD31R,0.06693X0.09843*%
%ADD32R,0.11811X0.05512*%
G04:AMPARAMS|DCode=33|XSize=118.11mil|YSize=55.12mil|CornerRadius=13.78mil|HoleSize=0mil|Usage=FLASHONLY|Rotation=180.000|XOffset=0mil|YOffset=0mil|HoleType=Round|Shape=RoundedRectangle|*
%AMROUNDEDRECTD33*
21,1,0.11811,0.02756,0,0,180.0*
21,1,0.09055,0.05512,0,0,180.0*
1,1,0.02756,-0.04528,0.01378*
1,1,0.02756,0.04528,0.01378*
1,1,0.02756,0.04528,-0.01378*
1,1,0.02756,-0.04528,-0.01378*
%
%ADD33ROUNDEDRECTD33*%
G04:AMPARAMS|DCode=34|XSize=157.48mil|YSize=62.99mil|CornerRadius=15.75mil|HoleSize=0mil|Usage=FLASHONLY|Rotation=0.000|XOffset=0mil|YOffset=0mil|HoleType=Round|Shape=RoundedRectangle|*
%AMROUNDEDRECTD34*
21,1,0.15748,0.03150,0,0,0.0*
21,1,0.12598,0.06299,0,0,0.0*
1,1,0.03150,0.06299,-0.01575*
1,1,0.03150,-0.06299,-0.01575*
1,1,0.03150,-0.06299,0.01575*
1,1,0.03150,0.06299,0.01575*
%
%ADD34ROUNDEDRECTD34*%
%ADD35R,0.15748X0.06299*%
%ADD36R,0.07480X0.05906*%
%ADD37R,0.07087X0.05512*%
%ADD38R,0.09843X0.06693*%
%ADD39C,0.00600*%
%ADD40C,0.00800*%
%ADD41C,0.02000*%
%ADD42C,0.05000*%
%ADD43C,0.03000*%
%ADD44C,0.07500*%
%ADD45C,0.12500*%
%ADD46C,0.09843*%
%ADD47R,0.05512X0.05512*%
%ADD48C,0.05512*%
%ADD49C,0.07874*%
%ADD50C,0.08661*%
%ADD51R,0.08661X0.08661*%
%ADD52C,0.01772*%
%ADD53C,0.10000*%
%ADD54C,0.11811*%
%ADD55R,0.11811X0.11811*%
%ADD56O,0.04921X0.05906*%
%ADD57C,0.10236*%
%ADD58C,0.04500*%
%ADD59C,0.05118*%
%ADD60C,0.04724*%
%ADD61C,0.03200*%
%ADD62C,0.04000*%
%ADD63C,0.00984*%
%ADD64C,0.02362*%
%ADD65C,0.00787*%
%ADD66C,0.01000*%
%ADD67C,0.01575*%
%ADD68C,0.00500*%
%ADD69R,0.09000X6.30000*%
%ADD70R,1.09500X0.16500*%
%ADD71R,1.22500X0.16500*%
%ADD72R,1.88500X0.16500*%
%ADD73R,2.18000X0.16500*%
%ADD74R,1.62000X0.16500*%
%ADD75R,1.88000X0.16500*%
%ADD76R,2.94000X0.16500*%
%ADD77R,2.63500X0.16500*%
D10*
X516800Y-304451D02*
D03*
X402000Y-443449D02*
D03*
D11*
X516800Y-323349D02*
D03*
X402000Y-424551D02*
D03*
D12*
X454361Y-343700D02*
D03*
X462039D02*
D03*
X1337539Y-196300D02*
D03*
X1329861D02*
D03*
X656739Y-348100D02*
D03*
X649061D02*
D03*
X627661Y-513500D02*
D03*
X635339D02*
D03*
X1346661Y-521000D02*
D03*
X1354339D02*
D03*
X1313661D02*
D03*
X1321339D02*
D03*
X1087161Y-521500D02*
D03*
X1094839D02*
D03*
X1119661D02*
D03*
X1127339D02*
D03*
X1151661D02*
D03*
X1159339D02*
D03*
X1183661Y-521000D02*
D03*
X1191339D02*
D03*
X1216661D02*
D03*
X1224339D02*
D03*
X1282161D02*
D03*
X1289839D02*
D03*
X1248661D02*
D03*
X1256339D02*
D03*
X1379161D02*
D03*
X1386839D02*
D03*
X1445661D02*
D03*
X1453339D02*
D03*
X1412161D02*
D03*
X1419839D02*
D03*
X1338161Y-443000D02*
D03*
X1345839D02*
D03*
X1183161Y-442500D02*
D03*
X1190839D02*
D03*
X594839Y-307500D02*
D03*
X587161D02*
D03*
X1325339Y-117500D02*
D03*
X1317661D02*
D03*
X285661Y-359000D02*
D03*
X293339D02*
D03*
X637839Y-577500D02*
D03*
X630161D02*
D03*
X600661Y-623500D02*
D03*
X608339D02*
D03*
X582339Y-240000D02*
D03*
X574661D02*
D03*
X1039339Y-197000D02*
D03*
X1031661D02*
D03*
X1030239Y-119500D02*
D03*
X1022561D02*
D03*
X1026161Y-623000D02*
D03*
X1033839D02*
D03*
X668339Y-424500D02*
D03*
X660661D02*
D03*
X712339D02*
D03*
X704661D02*
D03*
X751260Y-423500D02*
D03*
X743583D02*
D03*
X130419Y-523980D02*
D03*
X122741D02*
D03*
D13*
X494320Y-334700D02*
D03*
X256821Y-434900D02*
D03*
X160380Y-474600D02*
D03*
D14*
X471879Y-343755D02*
D03*
Y-334700D02*
D03*
Y-325645D02*
D03*
X234380Y-443955D02*
D03*
Y-434900D02*
D03*
Y-425845D02*
D03*
X182820Y-465545D02*
D03*
Y-474600D02*
D03*
Y-483655D02*
D03*
D15*
X583284Y-513500D02*
D03*
Y-518500D02*
D03*
Y-523500D02*
D03*
Y-528500D02*
D03*
Y-533500D02*
D03*
Y-538500D02*
D03*
Y-543500D02*
D03*
Y-548500D02*
D03*
Y-553500D02*
D03*
Y-558500D02*
D03*
X618716Y-513500D02*
D03*
Y-518500D02*
D03*
Y-523500D02*
D03*
Y-528500D02*
D03*
Y-533500D02*
D03*
Y-538500D02*
D03*
Y-543500D02*
D03*
Y-548500D02*
D03*
Y-553500D02*
D03*
Y-558500D02*
D03*
X582784Y-569000D02*
D03*
Y-574000D02*
D03*
Y-579000D02*
D03*
Y-584000D02*
D03*
Y-589000D02*
D03*
Y-594000D02*
D03*
Y-599000D02*
D03*
Y-604000D02*
D03*
Y-609000D02*
D03*
Y-614000D02*
D03*
X618217Y-569000D02*
D03*
Y-574000D02*
D03*
Y-579000D02*
D03*
Y-584000D02*
D03*
Y-589000D02*
D03*
Y-594000D02*
D03*
Y-599000D02*
D03*
Y-604000D02*
D03*
Y-609000D02*
D03*
Y-614000D02*
D03*
X1047717Y-612000D02*
D03*
Y-607000D02*
D03*
Y-602000D02*
D03*
Y-597000D02*
D03*
Y-592000D02*
D03*
Y-587000D02*
D03*
Y-582000D02*
D03*
Y-577000D02*
D03*
Y-572000D02*
D03*
Y-567000D02*
D03*
X1012284Y-612000D02*
D03*
Y-607000D02*
D03*
Y-602000D02*
D03*
Y-597000D02*
D03*
Y-592000D02*
D03*
Y-587000D02*
D03*
Y-582000D02*
D03*
Y-577000D02*
D03*
Y-572000D02*
D03*
Y-567000D02*
D03*
D16*
X1402000Y-489968D02*
D03*
X1397000D02*
D03*
Y-511031D02*
D03*
X1392000Y-489968D02*
D03*
X1407000Y-511031D02*
D03*
X1402000D02*
D03*
X1392000D02*
D03*
X1407000Y-489968D02*
D03*
X1434000D02*
D03*
X1429000D02*
D03*
Y-511031D02*
D03*
X1424000Y-489968D02*
D03*
X1439000Y-511031D02*
D03*
X1434000D02*
D03*
X1424000D02*
D03*
X1439000Y-489968D02*
D03*
X1369000D02*
D03*
X1364000D02*
D03*
Y-511031D02*
D03*
X1359000Y-489968D02*
D03*
X1374000Y-511031D02*
D03*
X1369000D02*
D03*
X1359000D02*
D03*
X1374000Y-489968D02*
D03*
X1336500D02*
D03*
X1331500D02*
D03*
Y-511031D02*
D03*
X1326500Y-489968D02*
D03*
X1341500Y-511031D02*
D03*
X1336500D02*
D03*
X1326500D02*
D03*
X1341500Y-489968D02*
D03*
X1304000D02*
D03*
X1299000D02*
D03*
Y-511031D02*
D03*
X1294000Y-489968D02*
D03*
X1309000Y-511031D02*
D03*
X1304000D02*
D03*
X1294000D02*
D03*
X1309000Y-489968D02*
D03*
X1271500D02*
D03*
X1266500D02*
D03*
Y-511031D02*
D03*
X1261500Y-489968D02*
D03*
X1276500Y-511031D02*
D03*
X1271500D02*
D03*
X1261500D02*
D03*
X1276500Y-489968D02*
D03*
X1238500D02*
D03*
X1233500D02*
D03*
Y-511031D02*
D03*
X1228500Y-489968D02*
D03*
X1243500Y-511031D02*
D03*
X1238500D02*
D03*
X1228500D02*
D03*
X1243500Y-489968D02*
D03*
X1206500D02*
D03*
X1201500D02*
D03*
Y-511031D02*
D03*
X1196500Y-489968D02*
D03*
X1211500Y-511031D02*
D03*
X1206500D02*
D03*
X1196500D02*
D03*
X1211500Y-489968D02*
D03*
X1174000D02*
D03*
X1169000D02*
D03*
Y-511031D02*
D03*
X1164000Y-489968D02*
D03*
X1179000Y-511031D02*
D03*
X1174000D02*
D03*
X1164000D02*
D03*
X1179000Y-489968D02*
D03*
X1141500D02*
D03*
X1136500D02*
D03*
Y-511031D02*
D03*
X1131500Y-489968D02*
D03*
X1146500Y-511031D02*
D03*
X1141500D02*
D03*
X1131500D02*
D03*
X1146500Y-489968D02*
D03*
X1109000D02*
D03*
X1104000D02*
D03*
Y-511031D02*
D03*
X1099000Y-489968D02*
D03*
X1114000Y-511031D02*
D03*
X1109000D02*
D03*
X1099000D02*
D03*
X1114000Y-489968D02*
D03*
X1076500D02*
D03*
X1071500D02*
D03*
Y-511031D02*
D03*
X1066500Y-489968D02*
D03*
X1081500Y-511031D02*
D03*
X1076500D02*
D03*
X1066500D02*
D03*
X1081500Y-489968D02*
D03*
X785000Y-448532D02*
D03*
X790000D02*
D03*
Y-427469D02*
D03*
X795000Y-448532D02*
D03*
X780000Y-427469D02*
D03*
X785000D02*
D03*
X795000D02*
D03*
X780000Y-448532D02*
D03*
X919000Y-425468D02*
D03*
X914000D02*
D03*
Y-446531D02*
D03*
X909000Y-425468D02*
D03*
X924000Y-446531D02*
D03*
X919000D02*
D03*
X909000D02*
D03*
X924000Y-425468D02*
D03*
X964000D02*
D03*
X959000D02*
D03*
Y-446531D02*
D03*
X954000Y-425468D02*
D03*
X969000Y-446531D02*
D03*
X964000D02*
D03*
X954000D02*
D03*
X969000Y-425468D02*
D03*
X869500Y-464468D02*
D03*
X864500D02*
D03*
Y-485531D02*
D03*
X859500Y-464468D02*
D03*
X874500Y-485531D02*
D03*
X869500D02*
D03*
X859500D02*
D03*
X874500Y-464468D02*
D03*
X825000D02*
D03*
X820000D02*
D03*
Y-485531D02*
D03*
X815000Y-464468D02*
D03*
X830000Y-485531D02*
D03*
X825000D02*
D03*
X815000D02*
D03*
X830000Y-464468D02*
D03*
D17*
X550000Y-619500D02*
D03*
X540000Y-609500D02*
D03*
X550000Y-439500D02*
D03*
X540000Y-429500D02*
D03*
X450000D02*
D03*
X460000Y-439500D02*
D03*
X450000Y-609500D02*
D03*
X460000Y-619500D02*
D03*
D18*
X550000Y-599500D02*
D03*
X540000Y-589500D02*
D03*
X550000Y-579500D02*
D03*
X540000Y-569500D02*
D03*
X550000Y-559500D02*
D03*
X540000Y-549500D02*
D03*
X550000Y-539500D02*
D03*
X540000Y-529500D02*
D03*
X550000Y-519500D02*
D03*
X540000Y-509500D02*
D03*
X550000Y-499500D02*
D03*
X540000Y-489500D02*
D03*
X550000Y-479500D02*
D03*
X540000Y-469500D02*
D03*
X550000Y-459500D02*
D03*
X540000Y-449500D02*
D03*
X450000D02*
D03*
X460000Y-459500D02*
D03*
X450000Y-469500D02*
D03*
X460000Y-479500D02*
D03*
X450000Y-489500D02*
D03*
X460000Y-499500D02*
D03*
X450000Y-509500D02*
D03*
X460000Y-519500D02*
D03*
X450000Y-529500D02*
D03*
X460000Y-539500D02*
D03*
X450000Y-549500D02*
D03*
X460000Y-559500D02*
D03*
X450000Y-569500D02*
D03*
X460000Y-579500D02*
D03*
X450000Y-589500D02*
D03*
X460000Y-599500D02*
D03*
D19*
X673937Y-344000D02*
D03*
X666063D02*
D03*
X407437Y-516000D02*
D03*
X399563D02*
D03*
X329563Y-484500D02*
D03*
X337437D02*
D03*
X846437Y-447000D02*
D03*
X838563D02*
D03*
X831937Y-497500D02*
D03*
X824063D02*
D03*
X891437Y-445000D02*
D03*
X883563D02*
D03*
X875437Y-498000D02*
D03*
X867563D02*
D03*
D20*
X670032Y-376500D02*
D03*
X648969Y-361500D02*
D03*
Y-371500D02*
D03*
Y-376500D02*
D03*
X670032Y-361500D02*
D03*
X648969Y-366500D02*
D03*
X670032D02*
D03*
Y-371500D02*
D03*
X674953Y-444000D02*
D03*
Y-439000D02*
D03*
X653890D02*
D03*
X674953Y-434000D02*
D03*
X653890Y-449000D02*
D03*
Y-444000D02*
D03*
Y-434000D02*
D03*
X674953Y-449000D02*
D03*
X718953Y-444000D02*
D03*
Y-439000D02*
D03*
X697890D02*
D03*
X718953Y-434000D02*
D03*
X697890Y-449000D02*
D03*
Y-444000D02*
D03*
Y-434000D02*
D03*
X718953Y-449000D02*
D03*
X757953Y-444000D02*
D03*
Y-439000D02*
D03*
X736890D02*
D03*
X757953Y-434000D02*
D03*
X736890Y-449000D02*
D03*
Y-444000D02*
D03*
Y-434000D02*
D03*
X757953Y-449000D02*
D03*
D21*
X829000Y-379752D02*
D03*
X834000D02*
D03*
X839000D02*
D03*
X844000D02*
D03*
X849000D02*
D03*
X854000D02*
D03*
X859000D02*
D03*
X864000D02*
D03*
X829000Y-361248D02*
D03*
X834000D02*
D03*
X839000D02*
D03*
X844000D02*
D03*
X849000D02*
D03*
X854000D02*
D03*
X859000D02*
D03*
X864000D02*
D03*
X722500Y-379252D02*
D03*
X727500D02*
D03*
X732500D02*
D03*
X737500D02*
D03*
X742500D02*
D03*
X747500D02*
D03*
X752500D02*
D03*
X757500D02*
D03*
X722500Y-360748D02*
D03*
X727500D02*
D03*
X732500D02*
D03*
X737500D02*
D03*
X742500D02*
D03*
X747500D02*
D03*
X752500D02*
D03*
X757500D02*
D03*
X639033Y-307310D02*
D03*
X634033D02*
D03*
X629033D02*
D03*
X624033D02*
D03*
X619033D02*
D03*
X614033D02*
D03*
X609033D02*
D03*
X604033D02*
D03*
X639033Y-325813D02*
D03*
X634033D02*
D03*
X629033D02*
D03*
X624033D02*
D03*
X619033D02*
D03*
X614033D02*
D03*
X609033D02*
D03*
X604033D02*
D03*
X999900Y-424752D02*
D03*
X1004900D02*
D03*
X1009900D02*
D03*
X1014900D02*
D03*
X1019900D02*
D03*
X1024900D02*
D03*
X1029900D02*
D03*
X1034900D02*
D03*
X999900Y-406248D02*
D03*
X1004900D02*
D03*
X1009900D02*
D03*
X1014900D02*
D03*
X1019900D02*
D03*
X1024900D02*
D03*
X1029900D02*
D03*
X1034900D02*
D03*
X1085250Y-196449D02*
D03*
X1080250D02*
D03*
X1075250D02*
D03*
X1070250D02*
D03*
X1065250D02*
D03*
X1060250D02*
D03*
X1055250D02*
D03*
X1050250D02*
D03*
X1085250Y-214953D02*
D03*
X1080250D02*
D03*
X1075250D02*
D03*
X1070250D02*
D03*
X1065250D02*
D03*
X1060250D02*
D03*
X1055250D02*
D03*
X1050250D02*
D03*
X1381500Y-196248D02*
D03*
X1376500D02*
D03*
X1371500D02*
D03*
X1366500D02*
D03*
X1361500D02*
D03*
X1356500D02*
D03*
X1351500D02*
D03*
X1346500D02*
D03*
X1381500Y-214752D02*
D03*
X1376500D02*
D03*
X1371500D02*
D03*
X1366500D02*
D03*
X1361500D02*
D03*
X1356500D02*
D03*
X1351500D02*
D03*
X1346500D02*
D03*
D22*
X820000Y-361661D02*
D03*
Y-369339D02*
D03*
X713500Y-361161D02*
D03*
Y-368839D02*
D03*
X824000Y-315339D02*
D03*
Y-307661D02*
D03*
X383500Y-394839D02*
D03*
Y-387161D02*
D03*
X180500Y-416839D02*
D03*
Y-409161D02*
D03*
X630500Y-587161D02*
D03*
Y-594839D02*
D03*
X571500Y-602161D02*
D03*
Y-609839D02*
D03*
X630500Y-604661D02*
D03*
Y-612339D02*
D03*
X1042400Y-508339D02*
D03*
Y-500661D02*
D03*
X1044000Y-417061D02*
D03*
Y-424739D02*
D03*
X662000Y-488161D02*
D03*
Y-495839D02*
D03*
Y-470661D02*
D03*
Y-478339D02*
D03*
X682000Y-488161D02*
D03*
Y-495839D02*
D03*
Y-470661D02*
D03*
Y-478339D02*
D03*
X702500Y-488161D02*
D03*
Y-495839D02*
D03*
Y-470000D02*
D03*
Y-477677D02*
D03*
X722500Y-488161D02*
D03*
Y-495839D02*
D03*
Y-470661D02*
D03*
Y-478339D02*
D03*
X743000Y-488161D02*
D03*
Y-495839D02*
D03*
Y-470661D02*
D03*
Y-478339D02*
D03*
X763000Y-488161D02*
D03*
Y-495839D02*
D03*
Y-470661D02*
D03*
Y-478339D02*
D03*
X792500Y-488161D02*
D03*
Y-495839D02*
D03*
Y-471161D02*
D03*
Y-478839D02*
D03*
X838500Y-464839D02*
D03*
Y-457161D02*
D03*
X828000Y-453339D02*
D03*
Y-445661D02*
D03*
X883500Y-462839D02*
D03*
Y-455161D02*
D03*
X872500Y-453839D02*
D03*
Y-446161D02*
D03*
X907000Y-488661D02*
D03*
Y-496339D02*
D03*
Y-471161D02*
D03*
Y-478839D02*
D03*
X927000Y-488661D02*
D03*
Y-496339D02*
D03*
Y-471161D02*
D03*
Y-478839D02*
D03*
X950500Y-488661D02*
D03*
Y-496339D02*
D03*
Y-471161D02*
D03*
Y-478839D02*
D03*
X970600Y-488161D02*
D03*
Y-495839D02*
D03*
X970500Y-470461D02*
D03*
Y-478139D02*
D03*
X804000Y-447839D02*
D03*
Y-440161D02*
D03*
X901900Y-430561D02*
D03*
Y-438239D02*
D03*
X945500Y-432661D02*
D03*
Y-440339D02*
D03*
X849500Y-472661D02*
D03*
Y-480339D02*
D03*
D23*
X1381089Y-117894D02*
D03*
X1376089D02*
D03*
X1371089D02*
D03*
X1366089D02*
D03*
X1361089D02*
D03*
X1356089D02*
D03*
X1351089D02*
D03*
X1346089D02*
D03*
X1341089D02*
D03*
X1336089D02*
D03*
X1381089Y-153327D02*
D03*
X1376089D02*
D03*
X1371089D02*
D03*
X1366089D02*
D03*
X1361089D02*
D03*
X1356089D02*
D03*
X1351089D02*
D03*
X1346089D02*
D03*
X1341089D02*
D03*
X1336089D02*
D03*
X1000000Y-489716D02*
D03*
X1005000D02*
D03*
X1010000D02*
D03*
X1015000D02*
D03*
X1020000D02*
D03*
X1025000D02*
D03*
X1030000D02*
D03*
X1035000D02*
D03*
X1040000D02*
D03*
X1045000D02*
D03*
X1000000Y-454284D02*
D03*
X1005000D02*
D03*
X1010000D02*
D03*
X1015000D02*
D03*
X1020000D02*
D03*
X1025000D02*
D03*
X1030000D02*
D03*
X1035000D02*
D03*
X1040000D02*
D03*
X1045000D02*
D03*
X639202Y-239868D02*
D03*
X634202D02*
D03*
X629202D02*
D03*
X624202D02*
D03*
X619202D02*
D03*
X614202D02*
D03*
X609202D02*
D03*
X604202D02*
D03*
X599202D02*
D03*
X594202D02*
D03*
X639202Y-275302D02*
D03*
X634202D02*
D03*
X629202D02*
D03*
X624202D02*
D03*
X619202D02*
D03*
X614202D02*
D03*
X609202D02*
D03*
X604202D02*
D03*
X599202D02*
D03*
X594202D02*
D03*
X1084928Y-119468D02*
D03*
X1079928D02*
D03*
X1074928D02*
D03*
X1069928D02*
D03*
X1064928D02*
D03*
X1059928D02*
D03*
X1054928D02*
D03*
X1049928D02*
D03*
X1044928D02*
D03*
X1039928D02*
D03*
X1084928Y-154902D02*
D03*
X1079928D02*
D03*
X1074928D02*
D03*
X1069928D02*
D03*
X1064928D02*
D03*
X1059928D02*
D03*
X1054928D02*
D03*
X1049928D02*
D03*
X1044928D02*
D03*
X1039928D02*
D03*
X1327500Y-407185D02*
D03*
X1322500D02*
D03*
X1317500D02*
D03*
X1312500D02*
D03*
X1307500D02*
D03*
X1302500D02*
D03*
X1297500D02*
D03*
X1292500D02*
D03*
X1327500Y-442815D02*
D03*
X1322500D02*
D03*
X1317500D02*
D03*
X1312500D02*
D03*
X1307500D02*
D03*
X1302500D02*
D03*
X1297500D02*
D03*
X1292500D02*
D03*
X1172500Y-407185D02*
D03*
X1167500D02*
D03*
X1162500D02*
D03*
X1157500D02*
D03*
X1152500D02*
D03*
X1147500D02*
D03*
X1142500D02*
D03*
X1137500D02*
D03*
X1172500Y-442815D02*
D03*
X1167500D02*
D03*
X1162500D02*
D03*
X1157500D02*
D03*
X1152500D02*
D03*
X1147500D02*
D03*
X1142500D02*
D03*
X1137500D02*
D03*
X813000Y-280283D02*
D03*
X808000D02*
D03*
X803000D02*
D03*
X798000D02*
D03*
X793000D02*
D03*
X788000D02*
D03*
X783000D02*
D03*
X778000D02*
D03*
X773000D02*
D03*
X768000D02*
D03*
X813000Y-315717D02*
D03*
X808000D02*
D03*
X803000D02*
D03*
X798000D02*
D03*
X793000D02*
D03*
X788000D02*
D03*
X783000D02*
D03*
X778000D02*
D03*
X773000D02*
D03*
X768000D02*
D03*
D24*
X403500Y-571272D02*
D03*
Y-616941D02*
D03*
D25*
Y-552220D02*
D03*
D26*
X394445Y-529779D02*
D03*
X403500D02*
D03*
X412555D02*
D03*
D27*
X493701Y-602365D02*
D03*
X496850Y-602367D02*
D03*
X500000D02*
D03*
X506299D02*
D03*
X503150D02*
D03*
D28*
X482480Y-602582D02*
D03*
Y-624235D02*
D03*
X517520D02*
D03*
Y-602582D02*
D03*
D29*
X220800Y-438337D02*
D03*
Y-430463D02*
D03*
X1572500Y-65937D02*
D03*
Y-58063D02*
D03*
X1512500Y-65937D02*
D03*
Y-58063D02*
D03*
X1452500Y-65937D02*
D03*
Y-58063D02*
D03*
X1392500Y-65937D02*
D03*
Y-58063D02*
D03*
X1332500Y-65937D02*
D03*
Y-58063D02*
D03*
X1272500Y-65937D02*
D03*
Y-58063D02*
D03*
X1212500Y-65937D02*
D03*
Y-58063D02*
D03*
X1152500Y-65937D02*
D03*
Y-58063D02*
D03*
X1092500Y-65937D02*
D03*
Y-58063D02*
D03*
X1032500Y-65937D02*
D03*
Y-58063D02*
D03*
X972800Y-66037D02*
D03*
Y-58163D02*
D03*
X831000Y-202937D02*
D03*
Y-195063D02*
D03*
X781000Y-102937D02*
D03*
Y-95063D02*
D03*
X731000Y-202937D02*
D03*
Y-195063D02*
D03*
X681000Y-102937D02*
D03*
Y-95063D02*
D03*
X631000Y-202937D02*
D03*
Y-195063D02*
D03*
X581000Y-102937D02*
D03*
Y-95063D02*
D03*
X531000Y-202937D02*
D03*
Y-195063D02*
D03*
X480500Y-102937D02*
D03*
Y-95063D02*
D03*
X912500Y-65937D02*
D03*
Y-58063D02*
D03*
X652500Y-496137D02*
D03*
Y-488263D02*
D03*
Y-478437D02*
D03*
Y-470563D02*
D03*
X672000Y-495937D02*
D03*
Y-488063D02*
D03*
Y-478437D02*
D03*
Y-470563D02*
D03*
X692500Y-495937D02*
D03*
Y-488063D02*
D03*
Y-477776D02*
D03*
Y-469902D02*
D03*
X684500Y-370937D02*
D03*
Y-363063D02*
D03*
Y-344063D02*
D03*
Y-351937D02*
D03*
X712500Y-495937D02*
D03*
Y-488063D02*
D03*
Y-478437D02*
D03*
Y-470563D02*
D03*
X733000Y-495937D02*
D03*
Y-488063D02*
D03*
Y-478437D02*
D03*
Y-470563D02*
D03*
X753000Y-495937D02*
D03*
Y-488063D02*
D03*
Y-478437D02*
D03*
Y-470563D02*
D03*
X782500Y-495937D02*
D03*
Y-488063D02*
D03*
Y-478937D02*
D03*
Y-471063D02*
D03*
X838500Y-482937D02*
D03*
Y-475063D02*
D03*
X883500Y-480937D02*
D03*
Y-473063D02*
D03*
X897000Y-496437D02*
D03*
Y-488563D02*
D03*
Y-478937D02*
D03*
Y-471063D02*
D03*
X917000Y-496937D02*
D03*
Y-489063D02*
D03*
Y-479437D02*
D03*
Y-471563D02*
D03*
X940500Y-496937D02*
D03*
Y-489063D02*
D03*
Y-479437D02*
D03*
Y-471563D02*
D03*
X960500Y-496437D02*
D03*
Y-488563D02*
D03*
Y-478437D02*
D03*
Y-470563D02*
D03*
X198200Y-475863D02*
D03*
Y-483737D02*
D03*
D30*
X402500Y-387000D02*
D03*
Y-409000D02*
D03*
D31*
X275500Y-417739D02*
D03*
Y-435061D02*
D03*
D32*
X393051Y-367500D02*
D03*
X281051Y-380500D02*
D03*
D33*
X411949Y-367500D02*
D03*
X299949Y-380500D02*
D03*
D34*
X135524Y-422500D02*
D03*
D35*
X163476D02*
D03*
D36*
X855000Y-148602D02*
D03*
Y-136398D02*
D03*
X800000Y-46102D02*
D03*
Y-33898D02*
D03*
X755000Y-146102D02*
D03*
Y-133898D02*
D03*
X700000Y-43602D02*
D03*
Y-31398D02*
D03*
X652500Y-143602D02*
D03*
Y-131398D02*
D03*
X600000Y-46102D02*
D03*
Y-33898D02*
D03*
X552500Y-146102D02*
D03*
Y-133898D02*
D03*
X495000Y-46102D02*
D03*
Y-33898D02*
D03*
D37*
X855000Y-113898D02*
D03*
Y-126102D02*
D03*
X800000Y-11398D02*
D03*
Y-23602D02*
D03*
X755000Y-111398D02*
D03*
Y-123602D02*
D03*
X700000Y-8898D02*
D03*
Y-21102D02*
D03*
X652500Y-108898D02*
D03*
Y-121102D02*
D03*
X600000Y-11398D02*
D03*
Y-23602D02*
D03*
X552500Y-111398D02*
D03*
Y-123602D02*
D03*
X495000Y-13898D02*
D03*
Y-26102D02*
D03*
D38*
X118239Y-474400D02*
D03*
X135561D02*
D03*
M02*
