%FSLAX25Y25*%
%MOIN*%
G70*
G01*
G75*
G04 Layer_Color=16711935*
%ADD10R,0.05709X0.05906*%
%ADD11R,0.09843X0.06693*%
%ADD12R,0.08268X0.03543*%
%ADD13R,0.08268X0.12992*%
%ADD14R,0.05709X0.05906*%
%ADD15R,0.02362X0.08071*%
%ADD16R,0.05906X0.05709*%
%ADD17R,0.07874X0.02362*%
%ADD18R,0.08071X0.02362*%
%ADD19R,0.05906X0.05709*%
%ADD20R,0.02362X0.07874*%
%ADD21R,0.02362X0.07480*%
%ADD22R,0.07087X0.05512*%
%ADD23R,0.07480X0.05906*%
G04:AMPARAMS|DCode=24|XSize=118.11mil|YSize=55.12mil|CornerRadius=13.78mil|HoleSize=0mil|Usage=FLASHONLY|Rotation=180.000|XOffset=0mil|YOffset=0mil|HoleType=Round|Shape=RoundedRectangle|*
%AMROUNDEDRECTD24*
21,1,0.11811,0.02756,0,0,180.0*
21,1,0.09055,0.05512,0,0,180.0*
1,1,0.02756,-0.04528,0.01378*
1,1,0.02756,0.04528,0.01378*
1,1,0.02756,0.04528,-0.01378*
1,1,0.02756,-0.04528,-0.01378*
%
%ADD24ROUNDEDRECTD24*%
%ADD25R,0.11811X0.05512*%
%ADD26R,0.15748X0.06299*%
G04:AMPARAMS|DCode=27|XSize=157.48mil|YSize=62.99mil|CornerRadius=15.75mil|HoleSize=0mil|Usage=FLASHONLY|Rotation=0.000|XOffset=0mil|YOffset=0mil|HoleType=Round|Shape=RoundedRectangle|*
%AMROUNDEDRECTD27*
21,1,0.15748,0.03150,0,0,0.0*
21,1,0.12598,0.06299,0,0,0.0*
1,1,0.03150,0.06299,-0.01575*
1,1,0.03150,-0.06299,-0.01575*
1,1,0.03150,-0.06299,0.01575*
1,1,0.03150,0.06299,0.01575*
%
%ADD27ROUNDEDRECTD27*%
%ADD28R,0.05512X0.11811*%
G04:AMPARAMS|DCode=29|XSize=118.11mil|YSize=55.12mil|CornerRadius=13.78mil|HoleSize=0mil|Usage=FLASHONLY|Rotation=270.000|XOffset=0mil|YOffset=0mil|HoleType=Round|Shape=RoundedRectangle|*
%AMROUNDEDRECTD29*
21,1,0.11811,0.02756,0,0,270.0*
21,1,0.09055,0.05512,0,0,270.0*
1,1,0.02756,-0.01378,-0.04528*
1,1,0.02756,-0.01378,0.04528*
1,1,0.02756,0.01378,0.04528*
1,1,0.02756,0.01378,-0.04528*
%
%ADD29ROUNDEDRECTD29*%
%ADD30R,0.06693X0.09843*%
%ADD31R,0.14000X0.05500*%
%ADD32R,0.07874X0.09843*%
%ADD33R,0.01969X0.09252*%
%ADD34R,0.03543X0.08268*%
%ADD35R,0.12992X0.08268*%
%ADD36R,0.11811X0.15748*%
%ADD37R,0.09000X0.02500*%
%ADD38R,0.09000X0.03500*%
%ADD39C,0.00800*%
%ADD40C,0.02000*%
%ADD41C,0.00600*%
%ADD42C,0.05000*%
%ADD43C,0.07500*%
%ADD44C,0.03000*%
%ADD45C,0.04500*%
%ADD46C,0.05118*%
%ADD47C,0.04724*%
%ADD48C,0.10236*%
%ADD49C,0.11811*%
%ADD50C,0.12500*%
%ADD51O,0.04921X0.05906*%
%ADD52R,0.11811X0.11811*%
%ADD53C,0.10000*%
%ADD54R,0.08661X0.08661*%
%ADD55C,0.08661*%
%ADD56C,0.01772*%
%ADD57C,0.07874*%
%ADD58C,0.05512*%
%ADD59R,0.05512X0.05512*%
%ADD60C,0.09843*%
%ADD61C,0.03200*%
%ADD62C,0.04000*%
%ADD63C,0.00984*%
%ADD64C,0.01000*%
%ADD65C,0.00787*%
%ADD66C,0.02362*%
%ADD67C,0.01575*%
%ADD68C,0.00500*%
%ADD69R,2.63500X0.16500*%
%ADD70R,2.94000X0.16500*%
%ADD71R,1.88000X0.16500*%
%ADD72R,1.62000X0.16500*%
%ADD73R,2.18000X0.16500*%
%ADD74R,1.88500X0.16500*%
%ADD75R,1.22500X0.16500*%
%ADD76R,1.09500X0.16500*%
%ADD77R,0.09000X6.30000*%
%ADD78R,0.06509X0.06706*%
%ADD79R,0.10642X0.07493*%
%ADD80R,0.09068X0.04343*%
%ADD81R,0.09068X0.13792*%
%ADD82R,0.06509X0.06706*%
%ADD83R,0.03162X0.08871*%
%ADD84R,0.06706X0.06509*%
%ADD85R,0.08674X0.03162*%
%ADD86R,0.08871X0.03162*%
%ADD87R,0.06706X0.06509*%
%ADD88R,0.03162X0.08674*%
%ADD89R,0.03162X0.08280*%
%ADD90R,0.07887X0.06312*%
%ADD91R,0.08280X0.06706*%
G04:AMPARAMS|DCode=92|XSize=126.11mil|YSize=63.12mil|CornerRadius=17.78mil|HoleSize=0mil|Usage=FLASHONLY|Rotation=180.000|XOffset=0mil|YOffset=0mil|HoleType=Round|Shape=RoundedRectangle|*
%AMROUNDEDRECTD92*
21,1,0.12611,0.02756,0,0,180.0*
21,1,0.09055,0.06312,0,0,180.0*
1,1,0.03556,-0.04528,0.01378*
1,1,0.03556,0.04528,0.01378*
1,1,0.03556,0.04528,-0.01378*
1,1,0.03556,-0.04528,-0.01378*
%
%ADD92ROUNDEDRECTD92*%
%ADD93R,0.12611X0.06312*%
%ADD94R,0.16548X0.07099*%
G04:AMPARAMS|DCode=95|XSize=165.48mil|YSize=70.99mil|CornerRadius=19.75mil|HoleSize=0mil|Usage=FLASHONLY|Rotation=0.000|XOffset=0mil|YOffset=0mil|HoleType=Round|Shape=RoundedRectangle|*
%AMROUNDEDRECTD95*
21,1,0.16548,0.03150,0,0,0.0*
21,1,0.12598,0.07099,0,0,0.0*
1,1,0.03950,0.06299,-0.01575*
1,1,0.03950,-0.06299,-0.01575*
1,1,0.03950,-0.06299,0.01575*
1,1,0.03950,0.06299,0.01575*
%
%ADD95ROUNDEDRECTD95*%
%ADD96R,0.06312X0.12611*%
G04:AMPARAMS|DCode=97|XSize=126.11mil|YSize=63.12mil|CornerRadius=17.78mil|HoleSize=0mil|Usage=FLASHONLY|Rotation=270.000|XOffset=0mil|YOffset=0mil|HoleType=Round|Shape=RoundedRectangle|*
%AMROUNDEDRECTD97*
21,1,0.12611,0.02756,0,0,270.0*
21,1,0.09055,0.06312,0,0,270.0*
1,1,0.03556,-0.01378,-0.04528*
1,1,0.03556,-0.01378,0.04528*
1,1,0.03556,0.01378,0.04528*
1,1,0.03556,0.01378,-0.04528*
%
%ADD97ROUNDEDRECTD97*%
%ADD98R,0.07493X0.10642*%
%ADD99R,0.14800X0.06300*%
%ADD100R,0.08674X0.10642*%
%ADD101R,0.02769X0.10052*%
%ADD102R,0.04343X0.09068*%
%ADD103R,0.13792X0.09068*%
%ADD104R,0.12611X0.16548*%
%ADD105R,0.09800X0.03300*%
%ADD106R,0.09800X0.04300*%
%ADD107C,0.05300*%
%ADD108C,0.05918*%
%ADD109C,0.05524*%
%ADD110C,0.00800*%
%ADD111C,0.11036*%
%ADD112C,0.12611*%
%ADD113C,0.13300*%
%ADD114O,0.05721X0.06706*%
%ADD115R,0.12611X0.12611*%
%ADD116C,0.10800*%
%ADD117R,0.09461X0.09461*%
%ADD118C,0.09461*%
%ADD119C,0.02572*%
%ADD120C,0.08674*%
%ADD121R,0.00800X0.00800*%
%ADD122C,0.06312*%
%ADD123R,0.06312X0.06312*%
%ADD124C,0.10642*%
%ADD125C,0.14567*%
%ADD126C,0.00394*%
D126*
X1043386Y-611547D02*
G03*
X1043386Y-611547I-1969J0D01*
G01*
X814516Y-286583D02*
G03*
X814516Y-286583I-1969J0D01*
G01*
X1053577Y-210032D02*
G03*
X1053577Y-210032I-1969J0D01*
G01*
X1042349Y-148602D02*
G03*
X1042349Y-148602I-1969J0D01*
G01*
X1349827Y-209831D02*
G03*
X1349827Y-209831I-1969J0D01*
G01*
X596624Y-269002D02*
G03*
X596624Y-269002I-1969J0D01*
G01*
X1046516Y-460583D02*
G03*
X1046516Y-460583I-1969J0D01*
G01*
X1035510Y-411169D02*
G03*
X1035510Y-411169I-1969J0D01*
G01*
X613886Y-613547D02*
G03*
X613886Y-613547I-1969J0D01*
G01*
X1338510Y-147028D02*
G03*
X1338510Y-147028I-1969J0D01*
G01*
X607360Y-320892D02*
G03*
X607360Y-320892I-1969J0D01*
G01*
X725827Y-374331D02*
G03*
X725827Y-374331I-1969J0D01*
G01*
X832327Y-374831D02*
G03*
X832327Y-374831I-1969J0D01*
G01*
X591551Y-513953D02*
G03*
X591551Y-513953I-1969J0D01*
G01*
X122446Y-521322D02*
X130714D01*
X122446Y-526637D02*
X130714D01*
X122446D02*
Y-521322D01*
X130714Y-526637D02*
Y-521322D01*
X178884Y-487789D02*
Y-461411D01*
X164316Y-487789D02*
Y-461411D01*
Y-487789D02*
X178884D01*
X164316Y-461411D02*
X178884D01*
X195543Y-484131D02*
Y-475469D01*
X200857Y-484131D02*
Y-475469D01*
X195543Y-484131D02*
X200857D01*
X195543Y-475469D02*
X200857D01*
X846842Y-480634D02*
X852157D01*
X846842Y-472366D02*
X852157D01*
X846842Y-480634D02*
Y-472366D01*
X852157Y-480634D02*
Y-472366D01*
X1015039Y-563909D02*
X1044961D01*
X1015039Y-615091D02*
X1044961D01*
X1015039D02*
Y-563909D01*
X1044961Y-615091D02*
Y-563909D01*
X963157Y-478831D02*
Y-470169D01*
X957843Y-478831D02*
Y-470169D01*
X963157D01*
X957843Y-478831D02*
X963157D01*
Y-496831D02*
Y-488169D01*
X957843Y-496831D02*
Y-488169D01*
X963157D01*
X957843Y-496831D02*
X963157D01*
X943157Y-479831D02*
Y-471169D01*
X937842Y-479831D02*
Y-471169D01*
X943157D01*
X937842Y-479831D02*
X943157D01*
Y-497331D02*
Y-488669D01*
X937842Y-497331D02*
Y-488669D01*
X943157D01*
X937842Y-497331D02*
X943157D01*
X919658Y-479831D02*
Y-471169D01*
X914342Y-479831D02*
Y-471169D01*
X919658D01*
X914342Y-479831D02*
X919658D01*
Y-497331D02*
Y-488669D01*
X914342Y-497331D02*
Y-488669D01*
X919658D01*
X914342Y-497331D02*
X919658D01*
X899658Y-479331D02*
Y-470669D01*
X894343Y-479331D02*
Y-470669D01*
X899658D01*
X894343Y-479331D02*
X899658D01*
Y-496831D02*
Y-488169D01*
X894343Y-496831D02*
Y-488169D01*
X899658D01*
X894343Y-496831D02*
X899658D01*
X867169Y-495342D02*
X875831D01*
X867169Y-500658D02*
X875831D01*
X867169D02*
Y-495342D01*
X875831Y-500658D02*
Y-495342D01*
X883169Y-442343D02*
X891831D01*
X883169Y-447657D02*
X891831D01*
X883169D02*
Y-442343D01*
X891831Y-447657D02*
Y-442343D01*
X886158Y-481331D02*
Y-472669D01*
X880842Y-481331D02*
Y-472669D01*
X886158D01*
X880842Y-481331D02*
X886158D01*
X823669Y-494842D02*
X832331D01*
X823669Y-500157D02*
X832331D01*
X823669D02*
Y-494842D01*
X832331Y-500157D02*
Y-494842D01*
X838169Y-444343D02*
X846831D01*
X838169Y-449657D02*
X846831D01*
X838169D02*
Y-444343D01*
X846831Y-449657D02*
Y-444343D01*
X841158Y-483331D02*
Y-474669D01*
X835843Y-483331D02*
Y-474669D01*
X841158D01*
X835843Y-483331D02*
X841158D01*
X785157Y-479331D02*
Y-470669D01*
X779843Y-479331D02*
Y-470669D01*
X785157D01*
X779843Y-479331D02*
X785157D01*
Y-496331D02*
Y-487669D01*
X779843Y-496331D02*
Y-487669D01*
X785157D01*
X779843Y-496331D02*
X785157D01*
X755657Y-478831D02*
Y-470169D01*
X750343Y-478831D02*
Y-470169D01*
X755657D01*
X750343Y-478831D02*
X755657D01*
Y-496331D02*
Y-487669D01*
X750343Y-496331D02*
Y-487669D01*
X755657D01*
X750343Y-496331D02*
X755657D01*
X735658Y-478831D02*
Y-470169D01*
X730342Y-478831D02*
Y-470169D01*
X735658D01*
X730342Y-478831D02*
X735658D01*
Y-496331D02*
Y-487669D01*
X730342Y-496331D02*
Y-487669D01*
X735658D01*
X730342Y-496331D02*
X735658D01*
X715158Y-478831D02*
Y-470169D01*
X709842Y-478831D02*
Y-470169D01*
X715158D01*
X709842Y-478831D02*
X715158D01*
Y-496331D02*
Y-487669D01*
X709842Y-496331D02*
Y-487669D01*
X715158D01*
X709842Y-496331D02*
X715158D01*
X681843Y-352331D02*
Y-343669D01*
X687157Y-352331D02*
Y-343669D01*
X681843Y-352331D02*
X687157D01*
X681843Y-343669D02*
X687157D01*
Y-371331D02*
Y-362669D01*
X681843Y-371331D02*
Y-362669D01*
X687157D01*
X681843Y-371331D02*
X687157D01*
X695157Y-478169D02*
Y-469508D01*
X689843Y-478169D02*
Y-469508D01*
X695157D01*
X689843Y-478169D02*
X695157D01*
Y-496331D02*
Y-487669D01*
X689843Y-496331D02*
Y-487669D01*
X695157D01*
X689843Y-496331D02*
X695157D01*
X674657Y-478831D02*
Y-470169D01*
X669343Y-478831D02*
Y-470169D01*
X674657D01*
X669343Y-478831D02*
X674657D01*
Y-496331D02*
Y-487669D01*
X669343Y-496331D02*
Y-487669D01*
X674657D01*
X669343Y-496331D02*
X674657D01*
X655158Y-478831D02*
Y-470169D01*
X649843Y-478831D02*
Y-470169D01*
X655158D01*
X649843Y-478831D02*
X655158D01*
Y-496531D02*
Y-487869D01*
X649843Y-496531D02*
Y-487869D01*
X655158D01*
X649843Y-496531D02*
X655158D01*
X942842Y-440634D02*
X948158D01*
X942842Y-432366D02*
X948158D01*
X942842Y-440634D02*
Y-432366D01*
X948158Y-440634D02*
Y-432366D01*
X899242Y-438534D02*
X904558D01*
X899242Y-430266D02*
X904558D01*
X899242Y-438534D02*
Y-430266D01*
X904558Y-438534D02*
Y-430266D01*
X801342Y-439866D02*
X806658D01*
X801342Y-448134D02*
X806658D01*
Y-439866D01*
X801342Y-448134D02*
Y-439866D01*
X743287Y-426158D02*
Y-420843D01*
X751555Y-426158D02*
Y-420843D01*
X743287D02*
X751555D01*
X743287Y-426158D02*
X751555D01*
X704366Y-427157D02*
Y-421842D01*
X712634Y-427157D02*
Y-421842D01*
X704366D02*
X712634D01*
X704366Y-427157D02*
X712634D01*
X660366D02*
Y-421842D01*
X668634Y-427157D02*
Y-421842D01*
X660366D02*
X668634D01*
X660366Y-427157D02*
X668634D01*
X967842Y-478434D02*
X973158D01*
X967842Y-470166D02*
X973158D01*
X967842Y-478434D02*
Y-470166D01*
X973158Y-478434D02*
Y-470166D01*
X967943Y-496134D02*
X973258D01*
X967943Y-487866D02*
X973258D01*
X967943Y-496134D02*
Y-487866D01*
X973258Y-496134D02*
Y-487866D01*
X947843Y-479134D02*
X953158D01*
X947843Y-470866D02*
X953158D01*
X947843Y-479134D02*
Y-470866D01*
X953158Y-479134D02*
Y-470866D01*
X947843Y-496634D02*
X953158D01*
X947843Y-488366D02*
X953158D01*
X947843Y-496634D02*
Y-488366D01*
X953158Y-496634D02*
Y-488366D01*
X924343Y-479134D02*
X929657D01*
X924343Y-470866D02*
X929657D01*
X924343Y-479134D02*
Y-470866D01*
X929657Y-479134D02*
Y-470866D01*
X924343Y-496634D02*
X929657D01*
X924343Y-488366D02*
X929657D01*
X924343Y-496634D02*
Y-488366D01*
X929657Y-496634D02*
Y-488366D01*
X904342Y-479134D02*
X909657D01*
X904342Y-470866D02*
X909657D01*
X904342Y-479134D02*
Y-470866D01*
X909657Y-479134D02*
Y-470866D01*
X904342Y-496634D02*
X909657D01*
X904342Y-488366D02*
X909657D01*
X904342Y-496634D02*
Y-488366D01*
X909657Y-496634D02*
Y-488366D01*
X1034134Y-625658D02*
Y-620342D01*
X1025866Y-625658D02*
Y-620342D01*
Y-625658D02*
X1034134D01*
X1025866Y-620342D02*
X1034134D01*
X869843Y-445866D02*
X875158D01*
X869843Y-454134D02*
X875158D01*
Y-445866D01*
X869843Y-454134D02*
Y-445866D01*
X880842Y-454866D02*
X886158D01*
X880842Y-463134D02*
X886158D01*
Y-454866D01*
X880842Y-463134D02*
Y-454866D01*
X825342Y-445366D02*
X830657D01*
X825342Y-453634D02*
X830657D01*
Y-445366D01*
X825342Y-453634D02*
Y-445366D01*
X835843Y-456866D02*
X841158D01*
X835843Y-465134D02*
X841158D01*
Y-456866D01*
X835843Y-465134D02*
Y-456866D01*
X789843Y-479134D02*
X795157D01*
X789843Y-470866D02*
X795157D01*
X789843Y-479134D02*
Y-470866D01*
X795157Y-479134D02*
Y-470866D01*
X789843Y-496134D02*
X795157D01*
X789843Y-487866D02*
X795157D01*
X789843Y-496134D02*
Y-487866D01*
X795157Y-496134D02*
Y-487866D01*
X760343Y-478634D02*
X765658D01*
X760343Y-470366D02*
X765658D01*
X760343Y-478634D02*
Y-470366D01*
X765658Y-478634D02*
Y-470366D01*
X760343Y-496134D02*
X765658D01*
X760343Y-487866D02*
X765658D01*
X760343Y-496134D02*
Y-487866D01*
X765658Y-496134D02*
Y-487866D01*
X740343Y-478634D02*
X745657D01*
X740343Y-470366D02*
X745657D01*
X740343Y-478634D02*
Y-470366D01*
X745657Y-478634D02*
Y-470366D01*
X740343Y-496134D02*
X745657D01*
X740343Y-487866D02*
X745657D01*
X740343Y-496134D02*
Y-487866D01*
X745657Y-496134D02*
Y-487866D01*
X719842Y-478634D02*
X725157D01*
X719842Y-470366D02*
X725157D01*
X719842Y-478634D02*
Y-470366D01*
X725157Y-478634D02*
Y-470366D01*
X719842Y-496134D02*
X725157D01*
X719842Y-487866D02*
X725157D01*
X719842Y-496134D02*
Y-487866D01*
X725157Y-496134D02*
Y-487866D01*
X699843Y-477973D02*
X705158D01*
X699843Y-469705D02*
X705158D01*
X699843Y-477973D02*
Y-469705D01*
X705158Y-477973D02*
Y-469705D01*
X699843Y-496134D02*
X705158D01*
X699843Y-487866D02*
X705158D01*
X699843Y-496134D02*
Y-487866D01*
X705158Y-496134D02*
Y-487866D01*
X679343Y-478634D02*
X684657D01*
X679343Y-470366D02*
X684657D01*
X679343Y-478634D02*
Y-470366D01*
X684657Y-478634D02*
Y-470366D01*
X679343Y-496134D02*
X684657D01*
X679343Y-487866D02*
X684657D01*
X679343Y-496134D02*
Y-487866D01*
X684657Y-496134D02*
Y-487866D01*
X659342Y-478634D02*
X664657D01*
X659342Y-470366D02*
X664657D01*
X659342Y-478634D02*
Y-470366D01*
X664657Y-478634D02*
Y-470366D01*
X659342Y-496134D02*
X664657D01*
X659342Y-487866D02*
X664657D01*
X659342Y-496134D02*
Y-487866D01*
X664657Y-496134D02*
Y-487866D01*
X764910Y-312961D02*
Y-283039D01*
X816090Y-312961D02*
Y-283039D01*
X764910Y-312961D02*
X816090D01*
X764910Y-283039D02*
X816090D01*
X1022266Y-122158D02*
Y-116842D01*
X1030534Y-122158D02*
Y-116842D01*
X1022266D02*
X1030534D01*
X1022266Y-122158D02*
X1030534D01*
X1031366Y-199657D02*
Y-194343D01*
X1039634Y-199657D02*
Y-194343D01*
X1031366D02*
X1039634D01*
X1031366Y-199657D02*
X1039634D01*
X574366Y-242657D02*
Y-237343D01*
X582634Y-242657D02*
Y-237343D01*
X574366D02*
X582634D01*
X574366Y-242657D02*
X582634D01*
X1048065Y-213575D02*
X1087435D01*
X1048065Y-197827D02*
X1087435D01*
X1048065Y-213575D02*
Y-197827D01*
X1087435Y-213575D02*
Y-197827D01*
X1036837Y-152146D02*
X1088018D01*
X1036837Y-122224D02*
X1088018D01*
X1036837Y-152146D02*
Y-122224D01*
X1088018Y-152146D02*
Y-122224D01*
X1344315Y-213374D02*
X1383685D01*
X1344315Y-197626D02*
X1383685D01*
X1344315Y-213374D02*
Y-197626D01*
X1383685Y-213374D02*
Y-197626D01*
X591112Y-272546D02*
X642293D01*
X591112Y-242624D02*
X642293D01*
X591112Y-272546D02*
Y-242624D01*
X642293Y-272546D02*
Y-242624D01*
X915158Y-66331D02*
Y-57669D01*
X909842Y-66331D02*
Y-57669D01*
X915158D01*
X909842Y-66331D02*
X915158D01*
X483157Y-103331D02*
Y-94669D01*
X477843Y-103331D02*
Y-94669D01*
X483157D01*
X477843Y-103331D02*
X483157D01*
X533658Y-203331D02*
Y-194669D01*
X528342Y-203331D02*
Y-194669D01*
X533658D01*
X528342Y-203331D02*
X533658D01*
X583658Y-103331D02*
Y-94669D01*
X578342Y-103331D02*
Y-94669D01*
X583658D01*
X578342Y-103331D02*
X583658D01*
X633658Y-203331D02*
Y-194669D01*
X628342Y-203331D02*
Y-194669D01*
X633658D01*
X628342Y-203331D02*
X633658D01*
X683658Y-103331D02*
Y-94669D01*
X678342Y-103331D02*
Y-94669D01*
X683658D01*
X678342Y-103331D02*
X683658D01*
X733658Y-203331D02*
Y-194669D01*
X728342Y-203331D02*
Y-194669D01*
X733658D01*
X728342Y-203331D02*
X733658D01*
X783658Y-103331D02*
Y-94669D01*
X778342Y-103331D02*
Y-94669D01*
X783658D01*
X778342Y-103331D02*
X783658D01*
X833657Y-203331D02*
Y-194669D01*
X828343Y-203331D02*
Y-194669D01*
X833657D01*
X828343Y-203331D02*
X833657D01*
X975457Y-66431D02*
Y-57769D01*
X970142Y-66431D02*
Y-57769D01*
X975457D01*
X970142Y-66431D02*
X975457D01*
X1035157Y-66331D02*
Y-57669D01*
X1029842Y-66331D02*
Y-57669D01*
X1035157D01*
X1029842Y-66331D02*
X1035157D01*
X1095158D02*
Y-57669D01*
X1089843Y-66331D02*
Y-57669D01*
X1095158D01*
X1089843Y-66331D02*
X1095158D01*
X1155157D02*
Y-57669D01*
X1149842Y-66331D02*
Y-57669D01*
X1155157D01*
X1149842Y-66331D02*
X1155157D01*
X1215158D02*
Y-57669D01*
X1209842Y-66331D02*
Y-57669D01*
X1215158D01*
X1209842Y-66331D02*
X1215158D01*
X1275158D02*
Y-57669D01*
X1269843Y-66331D02*
Y-57669D01*
X1275158D01*
X1269843Y-66331D02*
X1275158D01*
X1335157D02*
Y-57669D01*
X1329842Y-66331D02*
Y-57669D01*
X1335157D01*
X1329842Y-66331D02*
X1335157D01*
X1395158D02*
Y-57669D01*
X1389843Y-66331D02*
Y-57669D01*
X1395158D01*
X1389843Y-66331D02*
X1395158D01*
X1455157D02*
Y-57669D01*
X1449842Y-66331D02*
Y-57669D01*
X1455157D01*
X1449842Y-66331D02*
X1455157D01*
X1515158D02*
Y-57669D01*
X1509842Y-66331D02*
Y-57669D01*
X1515158D01*
X1509842Y-66331D02*
X1515158D01*
X1575158D02*
Y-57669D01*
X1569843Y-66331D02*
Y-57669D01*
X1575158D01*
X1569843Y-66331D02*
X1575158D01*
X491752Y-26398D02*
Y-13602D01*
X498248Y-26398D02*
Y-13602D01*
X491752Y-26398D02*
X498248D01*
X491752Y-13602D02*
X498248D01*
X549252Y-123898D02*
Y-111102D01*
X555748Y-123898D02*
Y-111102D01*
X549252Y-123898D02*
X555748D01*
X549252Y-111102D02*
X555748D01*
X596752Y-23898D02*
Y-11102D01*
X603248Y-23898D02*
Y-11102D01*
X596752Y-23898D02*
X603248D01*
X596752Y-11102D02*
X603248D01*
X649252Y-121398D02*
Y-108602D01*
X655748Y-121398D02*
Y-108602D01*
X649252Y-121398D02*
X655748D01*
X649252Y-108602D02*
X655748D01*
X696752Y-21398D02*
Y-8602D01*
X703248Y-21398D02*
Y-8602D01*
X696752Y-21398D02*
X703248D01*
X696752Y-8602D02*
X703248D01*
X751752Y-123898D02*
Y-111102D01*
X758248Y-123898D02*
Y-111102D01*
X751752Y-123898D02*
X758248D01*
X751752Y-111102D02*
X758248D01*
X796752Y-23898D02*
Y-11102D01*
X803248Y-23898D02*
Y-11102D01*
X796752Y-23898D02*
X803248D01*
X796752Y-11102D02*
X803248D01*
X851752Y-126398D02*
Y-113602D01*
X858248Y-126398D02*
Y-113602D01*
X851752Y-126398D02*
X858248D01*
X851752Y-113602D02*
X858248D01*
X491555Y-33307D02*
X498445D01*
X491555Y-46693D02*
X498445D01*
Y-33307D01*
X491555Y-46693D02*
Y-33307D01*
X549055Y-133307D02*
X555945D01*
X549055Y-146693D02*
X555945D01*
Y-133307D01*
X549055Y-146693D02*
Y-133307D01*
X596555Y-33307D02*
X603445D01*
X596555Y-46693D02*
X603445D01*
Y-33307D01*
X596555Y-46693D02*
Y-33307D01*
X649055Y-130807D02*
X655945D01*
X649055Y-144193D02*
X655945D01*
Y-130807D01*
X649055Y-144193D02*
Y-130807D01*
X696555Y-30807D02*
X703445D01*
X696555Y-44193D02*
X703445D01*
Y-30807D01*
X696555Y-44193D02*
Y-30807D01*
X751555Y-133307D02*
X758445D01*
X751555Y-146693D02*
X758445D01*
Y-133307D01*
X751555Y-146693D02*
Y-133307D01*
X796555Y-33307D02*
X803445D01*
X796555Y-46693D02*
X803445D01*
Y-33307D01*
X796555Y-46693D02*
Y-33307D01*
X851555Y-135807D02*
X858445D01*
X851555Y-149193D02*
X858445D01*
Y-135807D01*
X851555Y-149193D02*
Y-135807D01*
X1041343Y-425034D02*
Y-416766D01*
X1046657Y-425034D02*
Y-416766D01*
X1041343Y-425034D02*
X1046657D01*
X1041343Y-416766D02*
X1046657D01*
X1045057Y-508634D02*
Y-500366D01*
X1039742Y-508634D02*
Y-500366D01*
X1045057D01*
X1039742Y-508634D02*
X1045057D01*
X627843Y-612634D02*
Y-604366D01*
X633157Y-612634D02*
Y-604366D01*
X627843Y-612634D02*
X633157D01*
X627843Y-604366D02*
X633157D01*
X568843Y-610134D02*
Y-601866D01*
X574157Y-610134D02*
Y-601866D01*
X568843Y-610134D02*
X574157D01*
X568843Y-601866D02*
X574157D01*
X627843Y-595134D02*
Y-586866D01*
X633157Y-595134D02*
Y-586866D01*
X627843Y-595134D02*
X633157D01*
X627843Y-586866D02*
X633157D01*
X600366Y-626158D02*
X608634D01*
X600366Y-620843D02*
X608634D01*
Y-626158D02*
Y-620843D01*
X600366Y-626158D02*
Y-620843D01*
X629866Y-574843D02*
X638134D01*
X629866Y-580158D02*
X638134D01*
X629866D02*
Y-574843D01*
X638134Y-580158D02*
Y-574843D01*
X285366Y-361658D02*
X293634D01*
X285366Y-356343D02*
X293634D01*
Y-361658D02*
Y-356343D01*
X285366Y-361658D02*
Y-356343D01*
X183158Y-417134D02*
Y-408866D01*
X177842Y-417134D02*
Y-408866D01*
X183158D01*
X177842Y-417134D02*
X183158D01*
X386157Y-395134D02*
Y-386866D01*
X380842Y-395134D02*
Y-386866D01*
X386157D01*
X380842Y-395134D02*
X386157D01*
X238316Y-448089D02*
Y-421711D01*
X252884Y-448089D02*
Y-421711D01*
X238316D02*
X252884D01*
X238316Y-448089D02*
X252884D01*
X329169Y-487157D02*
X337831D01*
X329169Y-481843D02*
X337831D01*
Y-487157D02*
Y-481843D01*
X329169Y-487157D02*
Y-481843D01*
X223458Y-438731D02*
Y-430069D01*
X218143Y-438731D02*
Y-430069D01*
X223458D01*
X218143Y-438731D02*
X223458D01*
X996909Y-457039D02*
X1048091D01*
X996909Y-486961D02*
X1048091D01*
Y-457039D01*
X996909Y-486961D02*
Y-457039D01*
X997715Y-407626D02*
X1037085D01*
X997715Y-423374D02*
X1037085D01*
Y-407626D01*
X997715Y-423374D02*
Y-407626D01*
X615461Y-617091D02*
Y-565909D01*
X585539Y-617091D02*
Y-565909D01*
Y-617091D02*
X615461D01*
X585539Y-565909D02*
X615461D01*
X399169Y-518657D02*
Y-513343D01*
X407831Y-518657D02*
Y-513343D01*
X399169D02*
X407831D01*
X399169Y-518657D02*
X407831D01*
X390311Y-533716D02*
X416689D01*
X390311Y-548283D02*
X416689D01*
Y-533716D01*
X390311Y-548283D02*
Y-533716D01*
X1332998Y-150571D02*
X1384179D01*
X1332998Y-120650D02*
X1384179D01*
X1332998Y-150571D02*
Y-120650D01*
X1384179Y-150571D02*
Y-120650D01*
X1317366Y-120158D02*
Y-114842D01*
X1325634Y-120158D02*
Y-114842D01*
X1317366D02*
X1325634D01*
X1317366Y-120158D02*
X1325634D01*
X586866Y-310157D02*
Y-304842D01*
X595134Y-310157D02*
Y-304842D01*
X586866D02*
X595134D01*
X586866Y-310157D02*
X595134D01*
X601848Y-324435D02*
X641218D01*
X601848Y-308687D02*
X641218D01*
X601848Y-324435D02*
Y-308687D01*
X641218Y-324435D02*
Y-308687D01*
X821342Y-307366D02*
X826657D01*
X821342Y-315634D02*
X826657D01*
Y-307366D01*
X821342Y-315634D02*
Y-307366D01*
X710843Y-369134D02*
X716157D01*
X710843Y-360866D02*
X716157D01*
X710843Y-369134D02*
Y-360866D01*
X716157Y-369134D02*
Y-360866D01*
X759685Y-377874D02*
Y-362126D01*
X720315Y-377874D02*
Y-362126D01*
X759685D01*
X720315Y-377874D02*
X759685D01*
X817342Y-369634D02*
X822657D01*
X817342Y-361366D02*
X822657D01*
X817342Y-369634D02*
Y-361366D01*
X822657Y-369634D02*
Y-361366D01*
X866185Y-378374D02*
Y-362626D01*
X826815Y-378374D02*
Y-362626D01*
X866185D01*
X826815Y-378374D02*
X866185D01*
X1191134Y-445157D02*
Y-439843D01*
X1182866Y-445157D02*
Y-439843D01*
Y-445157D02*
X1191134D01*
X1182866Y-439843D02*
X1191134D01*
X1346134Y-445657D02*
Y-440343D01*
X1337866Y-445657D02*
Y-440343D01*
Y-445657D02*
X1346134D01*
X1337866Y-440343D02*
X1346134D01*
X1420134Y-523658D02*
Y-518342D01*
X1411866Y-523658D02*
Y-518342D01*
Y-523658D02*
X1420134D01*
X1411866Y-518342D02*
X1420134D01*
X1453634Y-523658D02*
Y-518342D01*
X1445366Y-523658D02*
Y-518342D01*
Y-523658D02*
X1453634D01*
X1445366Y-518342D02*
X1453634D01*
X1387134Y-523658D02*
Y-518342D01*
X1378866Y-523658D02*
Y-518342D01*
Y-523658D02*
X1387134D01*
X1378866Y-518342D02*
X1387134D01*
X1256634Y-523658D02*
Y-518342D01*
X1248366Y-523658D02*
Y-518342D01*
Y-523658D02*
X1256634D01*
X1248366Y-518342D02*
X1256634D01*
X1290134Y-523658D02*
Y-518342D01*
X1281866Y-523658D02*
Y-518342D01*
Y-523658D02*
X1290134D01*
X1281866Y-518342D02*
X1290134D01*
X1224634Y-523658D02*
Y-518342D01*
X1216366Y-523658D02*
Y-518342D01*
Y-523658D02*
X1224634D01*
X1216366Y-518342D02*
X1224634D01*
X1191634Y-523658D02*
Y-518342D01*
X1183366Y-523658D02*
Y-518342D01*
Y-523658D02*
X1191634D01*
X1183366Y-518342D02*
X1191634D01*
X1159634Y-524157D02*
Y-518843D01*
X1151366Y-524157D02*
Y-518843D01*
Y-524157D02*
X1159634D01*
X1151366Y-518843D02*
X1159634D01*
X1127634Y-524157D02*
Y-518843D01*
X1119366Y-524157D02*
Y-518843D01*
Y-524157D02*
X1127634D01*
X1119366Y-518843D02*
X1127634D01*
X1095134Y-524157D02*
Y-518843D01*
X1086866Y-524157D02*
Y-518843D01*
Y-524157D02*
X1095134D01*
X1086866Y-518843D02*
X1095134D01*
X1321634Y-523658D02*
Y-518342D01*
X1313366Y-523658D02*
Y-518342D01*
Y-523658D02*
X1321634D01*
X1313366Y-518342D02*
X1321634D01*
X1354634Y-523658D02*
Y-518342D01*
X1346366Y-523658D02*
Y-518342D01*
Y-523658D02*
X1354634D01*
X1346366Y-518342D02*
X1354634D01*
X635634Y-516157D02*
Y-510843D01*
X627366Y-516157D02*
Y-510843D01*
Y-516157D02*
X635634D01*
X627366Y-510843D02*
X635634D01*
X648766Y-345443D02*
X657034D01*
X648766Y-350758D02*
X657034D01*
X648766D02*
Y-345443D01*
X657034Y-350758D02*
Y-345443D01*
X665669Y-346657D02*
Y-341342D01*
X674331Y-346657D02*
Y-341342D01*
X665669D02*
X674331D01*
X665669Y-346657D02*
X674331D01*
X586039Y-561590D02*
X615961D01*
X586039Y-510409D02*
X615961D01*
Y-561590D02*
Y-510409D01*
X586039Y-561590D02*
Y-510409D01*
X1329566Y-198958D02*
Y-193642D01*
X1337834Y-198958D02*
Y-193642D01*
X1329566D02*
X1337834D01*
X1329566Y-198958D02*
X1337834D01*
X475816Y-347889D02*
Y-321511D01*
X490383Y-347889D02*
Y-321511D01*
X475816D02*
X490383D01*
X475816Y-347889D02*
X490383D01*
X454066Y-346357D02*
X462334D01*
X454066Y-341042D02*
X462334D01*
Y-346357D02*
Y-341042D01*
X454066Y-346357D02*
Y-341042D01*
M02*
