%FSLAX25Y25*%
%MOIN*%
G70*
G01*
G75*
G04 Layer_Color=16711935*
%ADD10R,0.05512X0.11811*%
G04:AMPARAMS|DCode=11|XSize=118.11mil|YSize=55.12mil|CornerRadius=13.78mil|HoleSize=0mil|Usage=FLASHONLY|Rotation=90.000|XOffset=0mil|YOffset=0mil|HoleType=Round|Shape=RoundedRectangle|*
%AMROUNDEDRECTD11*
21,1,0.11811,0.02756,0,0,90.0*
21,1,0.09055,0.05512,0,0,90.0*
1,1,0.02756,0.01378,0.04528*
1,1,0.02756,0.01378,-0.04528*
1,1,0.02756,-0.01378,-0.04528*
1,1,0.02756,-0.01378,0.04528*
%
%ADD11ROUNDEDRECTD11*%
%ADD12R,0.05709X0.05906*%
%ADD13R,0.08268X0.12992*%
%ADD14R,0.08268X0.03543*%
%ADD15R,0.07874X0.02362*%
%ADD16R,0.02362X0.08071*%
%ADD17R,0.09000X0.02500*%
%ADD18R,0.09000X0.03500*%
%ADD19R,0.05906X0.05709*%
%ADD20R,0.08071X0.02362*%
%ADD21R,0.02362X0.07480*%
%ADD22R,0.05906X0.05709*%
%ADD23R,0.02362X0.07874*%
%ADD24R,0.11811X0.15748*%
%ADD25R,0.12992X0.08268*%
%ADD26R,0.03543X0.08268*%
%ADD27R,0.01969X0.09252*%
%ADD28R,0.07874X0.09843*%
%ADD29R,0.05709X0.05906*%
%ADD30R,0.14000X0.05500*%
%ADD31R,0.06693X0.09843*%
%ADD32R,0.11811X0.05512*%
G04:AMPARAMS|DCode=33|XSize=118.11mil|YSize=55.12mil|CornerRadius=13.78mil|HoleSize=0mil|Usage=FLASHONLY|Rotation=180.000|XOffset=0mil|YOffset=0mil|HoleType=Round|Shape=RoundedRectangle|*
%AMROUNDEDRECTD33*
21,1,0.11811,0.02756,0,0,180.0*
21,1,0.09055,0.05512,0,0,180.0*
1,1,0.02756,-0.04528,0.01378*
1,1,0.02756,0.04528,0.01378*
1,1,0.02756,0.04528,-0.01378*
1,1,0.02756,-0.04528,-0.01378*
%
%ADD33ROUNDEDRECTD33*%
G04:AMPARAMS|DCode=34|XSize=157.48mil|YSize=62.99mil|CornerRadius=15.75mil|HoleSize=0mil|Usage=FLASHONLY|Rotation=0.000|XOffset=0mil|YOffset=0mil|HoleType=Round|Shape=RoundedRectangle|*
%AMROUNDEDRECTD34*
21,1,0.15748,0.03150,0,0,0.0*
21,1,0.12598,0.06299,0,0,0.0*
1,1,0.03150,0.06299,-0.01575*
1,1,0.03150,-0.06299,-0.01575*
1,1,0.03150,-0.06299,0.01575*
1,1,0.03150,0.06299,0.01575*
%
%ADD34ROUNDEDRECTD34*%
%ADD35R,0.15748X0.06299*%
%ADD36R,0.07480X0.05906*%
%ADD37R,0.07087X0.05512*%
%ADD38R,0.09843X0.06693*%
%ADD39C,0.00600*%
%ADD40C,0.00800*%
%ADD41C,0.02000*%
%ADD42C,0.05000*%
%ADD43C,0.03000*%
%ADD44C,0.07500*%
%ADD45C,0.12500*%
%ADD46C,0.09843*%
%ADD47R,0.05512X0.05512*%
%ADD48C,0.05512*%
%ADD49C,0.07874*%
%ADD50C,0.08661*%
%ADD51R,0.08661X0.08661*%
%ADD52C,0.01772*%
%ADD53C,0.10000*%
%ADD54C,0.11811*%
%ADD55R,0.11811X0.11811*%
%ADD56O,0.04921X0.05906*%
%ADD57C,0.10236*%
%ADD58C,0.04500*%
%ADD59C,0.05118*%
%ADD60C,0.04724*%
%ADD61C,0.03200*%
%ADD62C,0.04000*%
%ADD63C,0.00984*%
%ADD64C,0.02362*%
%ADD65C,0.00787*%
%ADD66C,0.01000*%
%ADD67C,0.01575*%
%ADD68C,0.00500*%
%ADD69R,0.09000X6.30000*%
%ADD70R,1.09500X0.16500*%
%ADD71R,1.22500X0.16500*%
%ADD72R,1.88500X0.16500*%
%ADD73R,2.18000X0.16500*%
%ADD74R,1.62000X0.16500*%
%ADD75R,1.88000X0.16500*%
%ADD76R,2.94000X0.16500*%
%ADD77R,2.63500X0.16500*%
%ADD78R,0.06312X0.12611*%
G04:AMPARAMS|DCode=79|XSize=126.11mil|YSize=63.12mil|CornerRadius=17.78mil|HoleSize=0mil|Usage=FLASHONLY|Rotation=90.000|XOffset=0mil|YOffset=0mil|HoleType=Round|Shape=RoundedRectangle|*
%AMROUNDEDRECTD79*
21,1,0.12611,0.02756,0,0,90.0*
21,1,0.09055,0.06312,0,0,90.0*
1,1,0.03556,0.01378,0.04528*
1,1,0.03556,0.01378,-0.04528*
1,1,0.03556,-0.01378,-0.04528*
1,1,0.03556,-0.01378,0.04528*
%
%ADD79ROUNDEDRECTD79*%
%ADD80R,0.06509X0.06706*%
%ADD81R,0.09068X0.13792*%
%ADD82R,0.09068X0.04343*%
%ADD83R,0.08674X0.03162*%
%ADD84R,0.03162X0.08871*%
%ADD85R,0.09800X0.03300*%
%ADD86R,0.09800X0.04300*%
%ADD87R,0.06706X0.06509*%
%ADD88R,0.08871X0.03162*%
%ADD89R,0.03162X0.08280*%
%ADD90R,0.06706X0.06509*%
%ADD91R,0.03162X0.08674*%
%ADD92R,0.12611X0.16548*%
%ADD93R,0.13792X0.09068*%
%ADD94R,0.04343X0.09068*%
%ADD95R,0.02769X0.10052*%
%ADD96R,0.08674X0.10642*%
%ADD97R,0.06509X0.06706*%
%ADD98R,0.14800X0.06300*%
%ADD99R,0.07493X0.10642*%
%ADD100R,0.12611X0.06312*%
G04:AMPARAMS|DCode=101|XSize=126.11mil|YSize=63.12mil|CornerRadius=17.78mil|HoleSize=0mil|Usage=FLASHONLY|Rotation=180.000|XOffset=0mil|YOffset=0mil|HoleType=Round|Shape=RoundedRectangle|*
%AMROUNDEDRECTD101*
21,1,0.12611,0.02756,0,0,180.0*
21,1,0.09055,0.06312,0,0,180.0*
1,1,0.03556,-0.04528,0.01378*
1,1,0.03556,0.04528,0.01378*
1,1,0.03556,0.04528,-0.01378*
1,1,0.03556,-0.04528,-0.01378*
%
%ADD101ROUNDEDRECTD101*%
G04:AMPARAMS|DCode=102|XSize=165.48mil|YSize=70.99mil|CornerRadius=19.75mil|HoleSize=0mil|Usage=FLASHONLY|Rotation=0.000|XOffset=0mil|YOffset=0mil|HoleType=Round|Shape=RoundedRectangle|*
%AMROUNDEDRECTD102*
21,1,0.16548,0.03150,0,0,0.0*
21,1,0.12598,0.07099,0,0,0.0*
1,1,0.03950,0.06299,-0.01575*
1,1,0.03950,-0.06299,-0.01575*
1,1,0.03950,-0.06299,0.01575*
1,1,0.03950,0.06299,0.01575*
%
%ADD102ROUNDEDRECTD102*%
%ADD103R,0.16548X0.07099*%
%ADD104R,0.08280X0.06706*%
%ADD105R,0.07887X0.06312*%
%ADD106R,0.10642X0.07493*%
%ADD107C,0.13300*%
%ADD108C,0.10642*%
%ADD109C,0.14567*%
%ADD110R,0.06312X0.06312*%
%ADD111C,0.06312*%
%ADD112R,0.00800X0.00800*%
%ADD113C,0.08674*%
%ADD114C,0.09461*%
%ADD115R,0.09461X0.09461*%
%ADD116C,0.02572*%
%ADD117C,0.10800*%
%ADD118C,0.12611*%
%ADD119R,0.12611X0.12611*%
%ADD120O,0.05721X0.06706*%
%ADD121C,0.00800*%
%ADD122C,0.11036*%
%ADD123C,0.05300*%
%ADD124C,0.05918*%
%ADD125C,0.05524*%
D62*
X465100Y-325600D02*
D03*
X396200Y-443200D02*
D03*
X448600Y-343900D02*
D03*
D107*
X1076638Y-567146D02*
D03*
Y-541949D02*
D03*
X1109138D02*
D03*
Y-567146D02*
D03*
X1141638D02*
D03*
Y-541949D02*
D03*
X1174138D02*
D03*
Y-567146D02*
D03*
X1206638D02*
D03*
Y-541949D02*
D03*
X1239138D02*
D03*
Y-567146D02*
D03*
X1271638D02*
D03*
Y-541949D02*
D03*
X1304138D02*
D03*
Y-567146D02*
D03*
X1336638D02*
D03*
Y-541949D02*
D03*
X1369138D02*
D03*
Y-567146D02*
D03*
X1401638D02*
D03*
Y-541949D02*
D03*
X1434138D02*
D03*
Y-567146D02*
D03*
X1223800Y118150D02*
D03*
X1196200D02*
D03*
Y137850D02*
D03*
X1223800D02*
D03*
X1253800Y77850D02*
D03*
X1226200D02*
D03*
Y58150D02*
D03*
X1253800D02*
D03*
X1283800Y137850D02*
D03*
X1256200D02*
D03*
Y118150D02*
D03*
X1283800D02*
D03*
X1313800Y58150D02*
D03*
X1286200D02*
D03*
Y77850D02*
D03*
X1313800D02*
D03*
X1343800Y118150D02*
D03*
X1316200D02*
D03*
Y137850D02*
D03*
X1343800D02*
D03*
X1373800Y77850D02*
D03*
X1346200D02*
D03*
Y58150D02*
D03*
X1373800D02*
D03*
X1403800Y137850D02*
D03*
X1376200D02*
D03*
Y118150D02*
D03*
X1403800D02*
D03*
X1433800Y58150D02*
D03*
X1406200D02*
D03*
Y77850D02*
D03*
X1433800D02*
D03*
X1463800Y118150D02*
D03*
X1436200D02*
D03*
Y137850D02*
D03*
X1463800D02*
D03*
X1493800Y77850D02*
D03*
X1466200D02*
D03*
Y58150D02*
D03*
X1493800D02*
D03*
X1523800Y137850D02*
D03*
X1496200D02*
D03*
Y118150D02*
D03*
X1523800D02*
D03*
X1553800Y58150D02*
D03*
X1526200D02*
D03*
Y77850D02*
D03*
X1553800D02*
D03*
X1583800Y118150D02*
D03*
X1556200D02*
D03*
Y137850D02*
D03*
X1583800D02*
D03*
X1643800D02*
D03*
X1616200D02*
D03*
Y118150D02*
D03*
X1643800D02*
D03*
X1613800Y77850D02*
D03*
X1586200D02*
D03*
Y58150D02*
D03*
X1613800D02*
D03*
X1193800D02*
D03*
X1166200D02*
D03*
Y77850D02*
D03*
X1193800D02*
D03*
X1163800Y137850D02*
D03*
X1136200D02*
D03*
Y118150D02*
D03*
X1163800D02*
D03*
X1103800D02*
D03*
X1076200D02*
D03*
Y137850D02*
D03*
X1103800D02*
D03*
X1133800Y77850D02*
D03*
X1106200D02*
D03*
Y58150D02*
D03*
X1133800D02*
D03*
X1073800D02*
D03*
X1046200D02*
D03*
Y77850D02*
D03*
X1073800D02*
D03*
X1043800Y137850D02*
D03*
X1016200D02*
D03*
Y118150D02*
D03*
X1043800D02*
D03*
X1013800Y77850D02*
D03*
X986200D02*
D03*
Y58150D02*
D03*
X1013800D02*
D03*
X983800Y118150D02*
D03*
X956200D02*
D03*
Y137850D02*
D03*
X983800D02*
D03*
X953800Y58150D02*
D03*
X926200D02*
D03*
Y77850D02*
D03*
X953800D02*
D03*
X863800Y137850D02*
D03*
X836200D02*
D03*
Y118150D02*
D03*
X863800D02*
D03*
X833800Y77850D02*
D03*
X806200D02*
D03*
Y58150D02*
D03*
X833800D02*
D03*
X803800Y118150D02*
D03*
X776200D02*
D03*
Y137850D02*
D03*
X803800D02*
D03*
X773800Y77850D02*
D03*
X746200D02*
D03*
Y58150D02*
D03*
X773800D02*
D03*
X743800Y137850D02*
D03*
X716200D02*
D03*
Y118150D02*
D03*
X743800D02*
D03*
X713800Y58150D02*
D03*
X686200D02*
D03*
Y77850D02*
D03*
X713800D02*
D03*
X683800Y118150D02*
D03*
X656200D02*
D03*
Y137850D02*
D03*
X683800D02*
D03*
X563800Y118150D02*
D03*
X536200D02*
D03*
Y137850D02*
D03*
X563800D02*
D03*
X593800Y77850D02*
D03*
X566200D02*
D03*
Y58150D02*
D03*
X593800D02*
D03*
X623800Y137850D02*
D03*
X596200D02*
D03*
Y118150D02*
D03*
X623800D02*
D03*
X653800Y58150D02*
D03*
X626200D02*
D03*
Y77850D02*
D03*
X653800D02*
D03*
X503800Y137850D02*
D03*
X476200D02*
D03*
Y118150D02*
D03*
X503800D02*
D03*
X533800Y58150D02*
D03*
X506200D02*
D03*
Y77850D02*
D03*
X533800D02*
D03*
X473800D02*
D03*
X446200D02*
D03*
Y58150D02*
D03*
X473800D02*
D03*
X443800Y118150D02*
D03*
X416200D02*
D03*
Y137850D02*
D03*
X443800D02*
D03*
X413800Y58150D02*
D03*
X386200D02*
D03*
Y77850D02*
D03*
X413800D02*
D03*
D108*
X992992Y-572024D02*
D03*
X995984Y-550016D02*
D03*
Y-613008D02*
D03*
X657008Y-559031D02*
D03*
X654016Y-534386D02*
D03*
Y-613008D02*
D03*
D109*
X985000Y-595016D02*
D03*
X665000D02*
D03*
D110*
X980000Y-534031D02*
D03*
X925000D02*
D03*
X870000D02*
D03*
X815000Y-533992D02*
D03*
X759980D02*
D03*
X704961D02*
D03*
X670000Y-570016D02*
D03*
X725000D02*
D03*
X780000D02*
D03*
X834980Y-570016D02*
D03*
X890000Y-570016D02*
D03*
X945000D02*
D03*
D111*
X970000Y-534031D02*
D03*
X960000D02*
D03*
X950000D02*
D03*
X890000Y-544031D02*
D03*
X895000Y-534031D02*
D03*
X900000Y-544031D02*
D03*
X905000Y-534031D02*
D03*
X910000Y-544031D02*
D03*
X915000Y-534031D02*
D03*
X920000Y-544031D02*
D03*
X975000D02*
D03*
X965000D02*
D03*
X955000D02*
D03*
X945000D02*
D03*
X865000D02*
D03*
X860000Y-534031D02*
D03*
X855000Y-544031D02*
D03*
X850000Y-534031D02*
D03*
X845000Y-544031D02*
D03*
X840000Y-534031D02*
D03*
X835000Y-544031D02*
D03*
X810000Y-543992D02*
D03*
X805000Y-533992D02*
D03*
X800000Y-543992D02*
D03*
X795000Y-533992D02*
D03*
X790000Y-543992D02*
D03*
X785000Y-533992D02*
D03*
X780000Y-543992D02*
D03*
X754980D02*
D03*
X749980Y-533992D02*
D03*
X744980Y-543992D02*
D03*
X739980Y-533992D02*
D03*
X734980Y-543992D02*
D03*
X729980Y-533992D02*
D03*
X724980Y-543992D02*
D03*
X699961D02*
D03*
X694961Y-533992D02*
D03*
X689961Y-543992D02*
D03*
X684961Y-533992D02*
D03*
X679961Y-543992D02*
D03*
X674961Y-533992D02*
D03*
X669961Y-543992D02*
D03*
X675000Y-560016D02*
D03*
X680000Y-570016D02*
D03*
X685000Y-560016D02*
D03*
X690000Y-570016D02*
D03*
X695000Y-560016D02*
D03*
X700000Y-570016D02*
D03*
X705000Y-560016D02*
D03*
X730000D02*
D03*
X735000Y-570016D02*
D03*
X740000Y-560016D02*
D03*
X745000Y-570016D02*
D03*
X750000Y-560016D02*
D03*
X755000Y-570016D02*
D03*
X760000Y-560016D02*
D03*
X785000D02*
D03*
X790000Y-570016D02*
D03*
X795000Y-560016D02*
D03*
X800000Y-570016D02*
D03*
X805000Y-560016D02*
D03*
X810000Y-570016D02*
D03*
X815000Y-560016D02*
D03*
X839980Y-560016D02*
D03*
X844980Y-570016D02*
D03*
X849980Y-560016D02*
D03*
X854980Y-570016D02*
D03*
X859980Y-560016D02*
D03*
X864980Y-570016D02*
D03*
X869980Y-560016D02*
D03*
X895000Y-560016D02*
D03*
X900000Y-570016D02*
D03*
X905000Y-560016D02*
D03*
X910000Y-570016D02*
D03*
X915000Y-560016D02*
D03*
X920000Y-570016D02*
D03*
X925000Y-560016D02*
D03*
X950000D02*
D03*
X955000Y-570016D02*
D03*
X960000Y-560016D02*
D03*
X965000Y-570016D02*
D03*
X970000Y-560016D02*
D03*
X975000Y-570016D02*
D03*
X980000Y-560016D02*
D03*
D112*
X545000Y-614500D02*
D03*
Y-434500D02*
D03*
X455000D02*
D03*
Y-614500D02*
D03*
D113*
X291700Y-443100D02*
D03*
X331700D02*
D03*
X361700D02*
D03*
Y-413100D02*
D03*
X331700D02*
D03*
X291700D02*
D03*
X531000Y-120400D02*
D03*
Y-140400D02*
D03*
Y-170400D02*
D03*
Y-180400D02*
D03*
X631000Y-120400D02*
D03*
Y-140400D02*
D03*
Y-170400D02*
D03*
Y-180400D02*
D03*
X731000Y-120400D02*
D03*
Y-140400D02*
D03*
Y-170400D02*
D03*
Y-180400D02*
D03*
X831000Y-120400D02*
D03*
Y-140400D02*
D03*
Y-170400D02*
D03*
Y-180400D02*
D03*
X781000Y-80400D02*
D03*
Y-70400D02*
D03*
Y-40400D02*
D03*
Y-20400D02*
D03*
X681000Y-80400D02*
D03*
Y-70400D02*
D03*
Y-40400D02*
D03*
Y-20400D02*
D03*
X581000Y-80400D02*
D03*
Y-70400D02*
D03*
Y-40400D02*
D03*
Y-20400D02*
D03*
X481000Y-80400D02*
D03*
Y-70400D02*
D03*
Y-40400D02*
D03*
Y-20400D02*
D03*
D114*
X1581890Y-500000D02*
D03*
X131890D02*
D03*
D115*
X1568110D02*
D03*
X118110D02*
D03*
D116*
X508661Y-612424D02*
D03*
X491339D02*
D03*
D117*
X342500Y-160000D02*
D03*
X422500D02*
D03*
Y-340000D02*
D03*
X382500D02*
D03*
X232500Y-157500D02*
D03*
X312500D02*
D03*
Y-337500D02*
D03*
X272500D02*
D03*
D118*
X74724Y-386595D02*
D03*
X165276D02*
D03*
X187913D02*
D03*
X41260Y-142500D02*
D03*
X120000D02*
D03*
X224606Y-70020D02*
D03*
X194606D02*
D03*
X84606D02*
D03*
X310000Y-30236D02*
D03*
D119*
X198740Y-142500D02*
D03*
D120*
X1572900Y-15000D02*
D03*
X1592900D02*
D03*
X1602900D02*
D03*
Y-45000D02*
D03*
X1592900D02*
D03*
X1582900D02*
D03*
X1572900D02*
D03*
X1512900D02*
D03*
X1522900D02*
D03*
X1532900D02*
D03*
X1542900D02*
D03*
Y-15000D02*
D03*
X1532900D02*
D03*
X1512900D02*
D03*
X1452900D02*
D03*
X1472900D02*
D03*
X1482900D02*
D03*
Y-45000D02*
D03*
X1472900D02*
D03*
X1462900D02*
D03*
X1452900D02*
D03*
X1392900D02*
D03*
X1402900D02*
D03*
X1412900D02*
D03*
X1422900D02*
D03*
Y-15000D02*
D03*
X1412900D02*
D03*
X1392900D02*
D03*
X1332900D02*
D03*
X1352900D02*
D03*
X1362900D02*
D03*
Y-45000D02*
D03*
X1352900D02*
D03*
X1342900D02*
D03*
X1332900D02*
D03*
X1212900Y-15000D02*
D03*
X1232900D02*
D03*
X1242900D02*
D03*
Y-45000D02*
D03*
X1232900D02*
D03*
X1222900D02*
D03*
X1212900D02*
D03*
X1272900D02*
D03*
X1282900D02*
D03*
X1292900D02*
D03*
X1302900D02*
D03*
Y-15000D02*
D03*
X1292900D02*
D03*
X1272900D02*
D03*
X1152900Y-45000D02*
D03*
X1162900D02*
D03*
X1172900D02*
D03*
X1182900D02*
D03*
Y-15000D02*
D03*
X1172900D02*
D03*
X1152900D02*
D03*
X1092900D02*
D03*
X1112900D02*
D03*
X1122900D02*
D03*
Y-45000D02*
D03*
X1112900D02*
D03*
X1102900D02*
D03*
X1092900D02*
D03*
X1032900D02*
D03*
X1042900D02*
D03*
X1052900D02*
D03*
X1062900D02*
D03*
Y-15000D02*
D03*
X1052900D02*
D03*
X1032900D02*
D03*
X972900D02*
D03*
X992900D02*
D03*
X1002900D02*
D03*
Y-45000D02*
D03*
X992900D02*
D03*
X982900D02*
D03*
X972900D02*
D03*
X912900D02*
D03*
X922900D02*
D03*
X932900D02*
D03*
X942900D02*
D03*
Y-15000D02*
D03*
X932900D02*
D03*
X912900D02*
D03*
D121*
X254606Y-54980D02*
D03*
X44606Y-34980D02*
D03*
X370000Y138000D02*
D03*
X1670000Y44500D02*
D03*
X890000Y68000D02*
D03*
Y128000D02*
D03*
D122*
X310000Y-80236D02*
D03*
X300000Y-110236D02*
D03*
X320000D02*
D03*
D123*
X337493Y-505077D02*
D03*
Y-497203D02*
D03*
X329619Y-505077D02*
D03*
Y-497203D02*
D03*
X321745Y-505077D02*
D03*
Y-497203D02*
D03*
X313871Y-505077D02*
D03*
Y-497203D02*
D03*
X313885Y-585104D02*
D03*
X321759D02*
D03*
X329633D02*
D03*
X337507D02*
D03*
X313885Y-592978D02*
D03*
X321759D02*
D03*
X329633D02*
D03*
X337507D02*
D03*
D124*
X293806Y-545742D02*
D03*
Y-604797D02*
D03*
X356798D02*
D03*
Y-545742D02*
D03*
D125*
X293202Y-573309D02*
D03*
X301102Y-569369D02*
D03*
Y-577249D02*
D03*
Y-585129D02*
D03*
X293202Y-581189D02*
D03*
Y-589069D02*
D03*
X350302Y-590269D02*
D03*
Y-560269D02*
D03*
M02*
