M48
;Layer_Color=9474304
;FILE_FORMAT=2:5
INCH,LZ
;TYPE=PLATED
T1F00S00C0.01500
T2F00S00C0.02000
T3F00S00C0.02953
T4F00S00C0.03000
T5F00S00C0.03583
T6F00S00C0.03937
T7F00S00C0.04724
T8F00S00C0.05000
T9F00S00C0.05118
T10F00S00C0.05906
T11F00S00C0.06299
T12F00S00C0.06700
T13F00S00C0.07200
T14F00S00C0.07500
T15F00S00C0.07874
T16F00S00C0.15000
T17F00S00C0.23622
;TYPE=NON_PLATED
T18F00S00C0.04600
T19F00S00C0.05118
T20F00S00C0.06181
T21F00S00C0.12795
%
T01
X13735Y-06114
Y-06074
X104Y-0623
X1048Y-0563
X10125Y-05384
X0773Y-0541
X077Y-0551
X07498Y-05845
X06734Y-06046
X06738Y-06093
X06735Y-06133
X06733Y-06181
X06413Y-05558
Y-05416
X06282Y-05334
X06279Y-0558
X06103Y-05779
X06047Y-05735
X05939Y-05685
X05982Y-05945
X05922Y-05982
X05646Y-05891
X0559Y-0586
X0557Y-0579
X05696Y-05793
X05518Y-05694
X05598Y-0559
X05696Y-05392
X05642Y-05299
X05936Y-0528
X0534Y-0581
X0485
X02363Y-04694
X02292Y-04619
X0309Y-0475
X0314Y-0436
X03714Y-0464
X03818Y-04615
X0371Y-04771
X04082Y-04794
X04079Y-04898
X03962Y-04432
X04025Y-04159
X0422Y-04156
X04607Y-04206
X04764Y-0414
X04931Y-04143
X05193
X053Y-04141
X05306Y-043
X05601Y-04393
Y-04487
X05599Y-04584
X05585Y-04687
X05609Y-04796
X05715Y-04843
X0573Y-0464
X0565Y-0418
X0586Y-0419
X05909Y-04137
X0596Y-0429
X06018Y-04249
X05958Y-03848
X0566Y-0392
X0533Y-0379
X05295Y-04896
X05183Y-04882
X05055Y-04971
X04843Y-05115
X04767Y-05076
X04874Y-04636
X04948Y-04599
X05396Y-04996
X05592Y-05144
X0557Y-0524
X05933Y-05062
X0658047Y-0482193
X0678047
X0698547Y-0481531
X0718547Y-0482193
X0739047
X0759047
X0738Y-0456
X0697
X0654Y-0457
X064Y-04246
X0628Y-0435
Y-0414
X063Y-039
Y-0371
X06946
X0686Y-0385
X0715Y-0378
X07325Y-03921
X07181Y-04246
X07574Y-04236
X06745Y-04244
X0661Y-0417
X0731Y-0523
X0798Y-0479
X08106Y-04476
X08199Y-04567
X08439Y-04569
X08652Y-0455
X08884Y-04552
X09068Y-04599
X0916Y-04601
X0924Y-0455
X092273Y-048373
X0902Y-0484
X0879437Y-0502
X0838Y-0498
X08358Y-0434
X08598Y-04249
X0896Y-04252
X09523Y-04184
X09506Y-04593
X09614Y-04592
X0966547Y-0481993
X0946547Y-0482693
X0995Y-0454
X10059Y-04404
X10096Y-0433
X10152Y-04344
X10205Y-04317
X1027Y-0416
X1045Y-0411
X10448Y-0432
X1045Y-0444
X10571Y-04332
X09995
X1Y-04
X10725Y-03813
X1072Y-0482
X10816Y-04973
X1104Y-0482
X1136
X11693Y-04821
X12016Y-0482
X12334Y-04823
X1238Y-0456
X1183Y-0453
X11622Y-04157
X11677Y-03957
X11763Y-03912
X11573Y-03873
X1147Y-03895
X11432Y-0379
X11382Y-03792
X11387Y-03752
X12832Y-04216
X13124Y-04179
X13178Y-04181
X13314Y-04827
X12993Y-0483
X12668Y-04821
X13639Y-04835
X13969Y-04825
X14289Y-0483
X13581Y-02274
X1074Y-0245
X1054Y-0246
X09857Y-02742
X09855Y-03419
X1017Y-0349
X10225Y-03549
Y-03236
X1018Y-0319
X0877Y-0352
X087Y-0361
X0839Y-0353
X0819Y-0354
X0823Y-0337
X08227Y-03243
X0832Y-0315
X0803Y-03219
X08033Y-03305
X07935Y-03288
X07877Y-03252
X07828Y-03267
X07827Y-03355
X07886
X07934Y-03413
X08062Y-03411
X08211Y-02682
X07501Y-02726
X07503Y-0332
X07504Y-03451
X07432Y-035
X07376Y-03541
X07374Y-03419
X07274Y-0351
X072Y-035
X0716Y-0333
X0709
X0708Y-0361
X0691
X0694Y-0353
X0663Y-0331
X065Y-0318
X06296Y-03136
X06242Y-03134
X06238Y-02988
X06332Y-0293
X06391Y-02984
X06532Y-0249
X0762Y-03498
X0767Y-0353
X05974Y-03632
X05776Y-03697
X05771Y-03346
X06043Y-03187
X06042Y-02914
X0617Y-02931
X05831Y-02857
X0582339Y-02488
X05991Y-02467
X05681Y-02401
X0533Y-03352
X05169Y-03348
X04651Y-03256
X0483Y-0366
X04486Y-03439
X04805Y-01562
X0581Y-015
X068Y-0151
X07243Y-02038
X06295Y-02107
X0831Y-02097
X0781Y-0151
X0912Y-00729
X09725Y-00726
X10376Y-00654
X105Y-01742
X1065Y-01806
X10701Y-01867
X10753Y-01819
X10803Y-0186
X10872Y-01858
X10851Y-01615
X10602Y-01871
X10652Y-02021
X10502Y-02053
X1098Y-00658
X11584
X12185Y-00656
X1279Y-0066
X13376Y-00658
X13991Y-00656
X13414Y-01284
X13106Y-01175
X13192Y-01858
X13239Y-0197
X13399Y-01891
X13493Y-0188
X13565Y-01882
X13669Y-01818
X13715Y-01768
X13471Y-01753
X14581Y-00656
X152Y-00659
X15793
T02
X16525Y-05765
X16025
X15025
X14525
X14025
X13525
X13025
X12525
X12025
X11525
X11025
X08525
X04525
X02525
X02025
X01525
X01025
X00525
X00775Y-05265
X00525Y-04765
X01025
X00775Y-04265
X00525Y-03765
X01025
X01525
X02025
X02525
X02775Y-04265
X02525Y-04765
X03025
X02275Y-05265
X01775
X03525Y-04765
X03275Y-04265
X03775
X03525Y-03765
X04025
X04275Y-05265
X05275
Y-04265
X04775
X05525Y-03765
X06275Y-05265
X06775
X07275
X07775
X08775
X09275
X09025Y-03765
X08275Y-04265
X09525Y-03765
X10025Y-04765
X10275Y-05265
X10775Y-04265
X11275
X11025Y-04765
X11525
X12025
Y-03765
X12525
X13025
X13525
X13275Y-04265
X13775
X13275Y-05265
X12775
X12525Y-04765
X14025
X14525
X15025
X15525
X15275Y-05265
X14775
Y-04265
X14275
X14025Y-03765
X14525
X15025
X15525
X15275Y-04265
X15775
X16275
X16775
X16525Y-04765
X16025
X16275Y-05265
X16775
X16525Y-03765
X16025
X15775Y-03265
X16275
X16775
X16525Y-02765
X16025
X15775Y-02265
X16275
X16775
X15275
X14775
X14275
X14025Y-02765
X14525
X15025
X15525
X15275Y-03265
X14775
X14275
X13775
X13275
X12775
X12525Y-02765
X13025
X13525
X13775Y-02265
X12025Y-02765
X11525
X11025
X11275Y-03265
X11775
X12275
X11275Y-02265
X10775
X10275
X09775
X09525Y-02765
X10025
X10525
X10275Y-03265
X10775
X09025Y-02765
X08525
X09275Y-02265
X07525Y-02765
X07025
X06525
X06775Y-03265
X07275
X05775
X05275
X05025Y-02765
X05525
X04775Y-02265
X04275
X03775
X03275
X03525Y-02765
X04025
X04525
X04275Y-03265
X03775
X03275
X02775
X02275
X01775
X01525Y-02765
X02025
X02525
X03025
X02775Y-02265
X02275
X01775
X01275
X00775
X00525Y-02765
X01025
X00775Y-03265
X01275
X04525Y-01765
X05025
X05525
X06025
X06525
X07025
X07525
X08525
X09025
X09275Y-01265
X09025Y-00765
X09525
X10025
X10525
X10275Y-01265
X09775
X09525Y-01765
X10025
X10775Y-01265
X11275
X11775
X12275
X12025Y-01765
X11525
Y-00765
X11025
X12025
X12525
X12775Y-01265
X12525Y-01765
X13025
X13775Y-01265
X13525Y-00765
X14525
X15025
X15525
X15275Y-01265
X14775
X14275
X14025Y-01765
X14525
X15025
X15525
X16025
X16525
X16275Y-01265
X15775
X16025Y-00765
X16525
X16775Y-01265
T03
X0350302Y-0590269
Y-0560269
X0301102Y-0569369
Y-0577249
Y-0585129
X0293202Y-0581189
Y-0573309
Y-0589069
X15729Y-0045
X15829
X15929
X16029
Y-0015
X15929
X15729
X15429
X15329
X15129
Y-0045
X15229
X15329
X15429
X14829
X14729
X14629
X14529
Y-0015
X14729
X14829
X14229
X14129
Y-0045
X14029
X14229
X13929
Y-0015
X13629
X13529
X13329
Y-0045
X13429
X13529
X13629
X13029
X12929
X12829
X12729
Y-0015
X12929
X13029
X12429
X12329
X12129
Y-0045
X12229
X12329
X12429
X11829
X11729
X11629
X11529
Y-0015
X11729
X11829
X11229
X11129
X10929
Y-0045
X11029
X11129
X11229
X10629
X10529
X10429
X10329
Y-0015
X10529
X10629
X10029
X09929
X09729
Y-0045
X09829
X09929
X10029
X09429
Y-0015
X09329
X09129
Y-0045
X09229
X09329
T04
X0313885Y-0592978
X0321759
Y-0585104
X0313885
X0329633
X0337507
Y-0592978
X0329633
X0329619Y-0505077
X0321745
Y-0497203
X0329619
X0337493
Y-0505077
X0313871
Y-0497203
T05
X0491339Y-0612424
X0508661
T06
X0945Y-0570016
X0955
X0965
X0975
X097Y-0560016
X096
X095
X0955Y-0544031
X0965
X0975
X098Y-0534031
X097
X096
X095
X0945Y-0544031
X098Y-0560016
X0925
X0915
X0905
X0895
X089Y-0570016
X09
X091
X092
Y-0544031
X091
X09
X089
X0895Y-0534031
X0905
X0915
X0925
X087
X086
X085
X084
X0845Y-0544031
X0855
X0865
X086998Y-0560016
X085998
X084998
X083998
X083498Y-0570016
X084498
X085498
X086498
X081Y-0570016
X08
X079
X078
X0785Y-0560016
X0795
X0805
X0815
X081Y-0543992
X08
X079
X078
X0785Y-0533992
X0795
X0805
X0815
X0835Y-0544031
X075498Y-0543992
X074498
X073498
X072498
X072998Y-0533992
X073998
X074998
X075998
X076Y-0560016
X075
X074
X073
X0725Y-0570016
X0735
X0745
X0755
X07
X069
X068
X067
X0675Y-0560016
X0685
X0695
X0705
X0699961Y-0543992
X0689961
X0679961
X0669961
X0674961Y-0533992
X0684961
X0694961
X0704961
X02917Y-04431
Y-04131
X03317
Y-04431
X03617
Y-04131
X0531Y-01804
Y-01704
Y-01404
Y-01204
X0581Y-00804
Y-00704
X0481
Y-00804
X0631Y-01204
Y-01404
Y-01704
Y-01804
X0731
Y-01704
Y-01404
Y-01204
X0681Y-00804
Y-00704
X0781
Y-00804
X0831Y-01204
Y-01404
Y-01704
Y-01804
X0781Y-00404
Y-00204
X0681
Y-00404
X0581
Y-00204
X0481
Y-00404
T07
X011811Y-05
X013189
X156811
X158189
T08
X03125Y-03375
X03825Y-034
X04225
X02725Y-03375
X02325Y-01575
X03125
X03425Y-016
X04225
T09
X03Y-0110236
X032
X031Y-0080236
T10
X0074724Y-0386595
X0165276
X0187913
X012Y-01425
X004126
X019874
T11
X0084606Y-007002
X0194606
X0224606
T12
X1434138Y-0567146
X1401638
X1369138
X1336638
X1304138
X1271638
X1239138
X1206638
X1174138
X1141638
X1109138
X1076638
T13
X1434138Y-0541949
X1401638
X1369138
X1336638
X1304138
X1271638
X1239138
X1206638
X1174138
X1141638
X1109138
X1076638
T14
X16138Y005815
Y007785
X15862
Y005815
X15538
Y007785
X15262
Y005815
X14938
Y007785
X14662
Y005815
X14338
Y007785
X14062
Y005815
X13738
Y007785
X13462
Y005815
X13138
Y007785
X12862
Y005815
X12538
Y007785
X12262
Y005815
X11938
Y007785
X11662
Y005815
X11338
Y007785
X11062
Y005815
X10738
Y007785
X10462
Y005815
X10138
Y007785
X09862
Y005815
X09538
Y007785
X09262
Y005815
X08338
Y007785
X08062
Y005815
X07738
Y007785
X07462
Y005815
X07138
Y007785
X06862
Y005815
X06538
Y007785
X06262
Y005815
X05938
Y007785
X05662
Y005815
X05338
Y007785
X05062
Y005815
X04738
Y007785
X04462
Y005815
X04138
Y007785
X03862
Y005815
X04162Y011815
Y013785
X04438
Y011815
X04762
Y013785
X05038
Y011815
X05362
Y013785
X05638
Y011815
X05962
Y013785
X06238
Y011815
X06562
Y013785
X06838
Y011815
X07162
Y013785
X07438
Y011815
X07762
Y013785
X08038
Y011815
X08362
Y013785
X08638
Y011815
X09562
Y013785
X09838
Y011815
X10162
Y013785
X10438
Y011815
X10762
Y013785
X11038
Y011815
X11362
Y013785
X11638
Y011815
X11962
Y013785
X12238
Y011815
X12562
Y013785
X12838
Y011815
X13162
Y013785
X13438
Y011815
X13762
Y013785
X14038
Y011815
X14362
Y013785
X14638
Y011815
X14962
Y013785
X15238
Y011815
X15562
Y013785
X15838
Y011815
X16162
Y013785
X16438
Y011815
T15
X031Y-0030236
T16
X167Y00445
X089Y0068
X037Y0138
X089Y0128
T17
X0254606Y-005498
X0044606Y-003498
T18
X0545Y-06145
X0455
Y-04345
X0545
T19
X0356798Y-0604797
Y-0545742
X0293806
Y-0604797
T20
X0995984Y-0613008
X0992992Y-0572024
X0995984Y-0550016
X0657008Y-0559031
X0654016Y-0534386
Y-0613008
T21
X0985Y-0595016
X0665
M30
