%FSLAX25Y25*%
%MOIN*%
G70*
G01*
G75*
G04 Layer_Color=32768*
%ADD10R,0.05709X0.05906*%
%ADD11R,0.09843X0.06693*%
%ADD12R,0.08268X0.03543*%
%ADD13R,0.08268X0.12992*%
%ADD14R,0.05709X0.05906*%
%ADD15R,0.02362X0.08071*%
%ADD16R,0.05906X0.05709*%
%ADD17R,0.07874X0.02362*%
%ADD18R,0.08071X0.02362*%
%ADD19R,0.05906X0.05709*%
%ADD20R,0.02362X0.07874*%
%ADD21R,0.02362X0.07480*%
%ADD22R,0.07087X0.05512*%
%ADD23R,0.07480X0.05906*%
G04:AMPARAMS|DCode=24|XSize=118.11mil|YSize=55.12mil|CornerRadius=13.78mil|HoleSize=0mil|Usage=FLASHONLY|Rotation=180.000|XOffset=0mil|YOffset=0mil|HoleType=Round|Shape=RoundedRectangle|*
%AMROUNDEDRECTD24*
21,1,0.11811,0.02756,0,0,180.0*
21,1,0.09055,0.05512,0,0,180.0*
1,1,0.02756,-0.04528,0.01378*
1,1,0.02756,0.04528,0.01378*
1,1,0.02756,0.04528,-0.01378*
1,1,0.02756,-0.04528,-0.01378*
%
%ADD24ROUNDEDRECTD24*%
%ADD25R,0.11811X0.05512*%
%ADD26R,0.15748X0.06299*%
G04:AMPARAMS|DCode=27|XSize=157.48mil|YSize=62.99mil|CornerRadius=15.75mil|HoleSize=0mil|Usage=FLASHONLY|Rotation=0.000|XOffset=0mil|YOffset=0mil|HoleType=Round|Shape=RoundedRectangle|*
%AMROUNDEDRECTD27*
21,1,0.15748,0.03150,0,0,0.0*
21,1,0.12598,0.06299,0,0,0.0*
1,1,0.03150,0.06299,-0.01575*
1,1,0.03150,-0.06299,-0.01575*
1,1,0.03150,-0.06299,0.01575*
1,1,0.03150,0.06299,0.01575*
%
%ADD27ROUNDEDRECTD27*%
%ADD28R,0.05512X0.11811*%
G04:AMPARAMS|DCode=29|XSize=118.11mil|YSize=55.12mil|CornerRadius=13.78mil|HoleSize=0mil|Usage=FLASHONLY|Rotation=270.000|XOffset=0mil|YOffset=0mil|HoleType=Round|Shape=RoundedRectangle|*
%AMROUNDEDRECTD29*
21,1,0.11811,0.02756,0,0,270.0*
21,1,0.09055,0.05512,0,0,270.0*
1,1,0.02756,-0.01378,-0.04528*
1,1,0.02756,-0.01378,0.04528*
1,1,0.02756,0.01378,0.04528*
1,1,0.02756,0.01378,-0.04528*
%
%ADD29ROUNDEDRECTD29*%
%ADD30R,0.06693X0.09843*%
%ADD31R,0.14000X0.05500*%
%ADD32R,0.07874X0.09843*%
%ADD33R,0.01969X0.09252*%
%ADD34R,0.03543X0.08268*%
%ADD35R,0.12992X0.08268*%
%ADD36R,0.11811X0.15748*%
%ADD37R,0.09000X0.02500*%
%ADD38R,0.09000X0.03500*%
%ADD39C,0.00800*%
%ADD40C,0.02000*%
%ADD41C,0.00600*%
%ADD42C,0.05000*%
%ADD43C,0.07500*%
%ADD44C,0.03000*%
%ADD45C,0.04500*%
%ADD46C,0.05118*%
%ADD47C,0.04724*%
%ADD48C,0.10236*%
%ADD49C,0.11811*%
%ADD50C,0.12500*%
%ADD51O,0.04921X0.05906*%
%ADD52R,0.11811X0.11811*%
%ADD53C,0.10000*%
%ADD54R,0.08661X0.08661*%
%ADD55C,0.08661*%
%ADD56C,0.01772*%
%ADD57C,0.07874*%
%ADD58C,0.05512*%
%ADD59R,0.05512X0.05512*%
%ADD60C,0.09843*%
%ADD61C,0.03200*%
%ADD62C,0.04000*%
%ADD63C,0.00984*%
%ADD64C,0.01000*%
%ADD65C,0.00787*%
%ADD66C,0.02362*%
%ADD67C,0.01575*%
%ADD68C,0.00500*%
%ADD69R,2.63500X0.16500*%
%ADD70R,2.94000X0.16500*%
%ADD71R,1.88000X0.16500*%
%ADD72R,1.62000X0.16500*%
%ADD73R,2.18000X0.16500*%
%ADD74R,1.88500X0.16500*%
%ADD75R,1.22500X0.16500*%
%ADD76R,1.09500X0.16500*%
%ADD77R,0.09000X6.30000*%
%ADD78R,0.06509X0.06706*%
%ADD79R,0.10642X0.07493*%
%ADD80R,0.09068X0.04343*%
%ADD81R,0.09068X0.13792*%
%ADD82R,0.06509X0.06706*%
%ADD83R,0.03162X0.08871*%
%ADD84R,0.06706X0.06509*%
%ADD85R,0.08674X0.03162*%
%ADD86R,0.08871X0.03162*%
%ADD87R,0.06706X0.06509*%
%ADD88R,0.03162X0.08674*%
%ADD89R,0.03162X0.08280*%
%ADD90R,0.07887X0.06312*%
%ADD91R,0.08280X0.06706*%
G04:AMPARAMS|DCode=92|XSize=126.11mil|YSize=63.12mil|CornerRadius=17.78mil|HoleSize=0mil|Usage=FLASHONLY|Rotation=180.000|XOffset=0mil|YOffset=0mil|HoleType=Round|Shape=RoundedRectangle|*
%AMROUNDEDRECTD92*
21,1,0.12611,0.02756,0,0,180.0*
21,1,0.09055,0.06312,0,0,180.0*
1,1,0.03556,-0.04528,0.01378*
1,1,0.03556,0.04528,0.01378*
1,1,0.03556,0.04528,-0.01378*
1,1,0.03556,-0.04528,-0.01378*
%
%ADD92ROUNDEDRECTD92*%
%ADD93R,0.12611X0.06312*%
%ADD94R,0.16548X0.07099*%
G04:AMPARAMS|DCode=95|XSize=165.48mil|YSize=70.99mil|CornerRadius=19.75mil|HoleSize=0mil|Usage=FLASHONLY|Rotation=0.000|XOffset=0mil|YOffset=0mil|HoleType=Round|Shape=RoundedRectangle|*
%AMROUNDEDRECTD95*
21,1,0.16548,0.03150,0,0,0.0*
21,1,0.12598,0.07099,0,0,0.0*
1,1,0.03950,0.06299,-0.01575*
1,1,0.03950,-0.06299,-0.01575*
1,1,0.03950,-0.06299,0.01575*
1,1,0.03950,0.06299,0.01575*
%
%ADD95ROUNDEDRECTD95*%
%ADD96R,0.06312X0.12611*%
G04:AMPARAMS|DCode=97|XSize=126.11mil|YSize=63.12mil|CornerRadius=17.78mil|HoleSize=0mil|Usage=FLASHONLY|Rotation=270.000|XOffset=0mil|YOffset=0mil|HoleType=Round|Shape=RoundedRectangle|*
%AMROUNDEDRECTD97*
21,1,0.12611,0.02756,0,0,270.0*
21,1,0.09055,0.06312,0,0,270.0*
1,1,0.03556,-0.01378,-0.04528*
1,1,0.03556,-0.01378,0.04528*
1,1,0.03556,0.01378,0.04528*
1,1,0.03556,0.01378,-0.04528*
%
%ADD97ROUNDEDRECTD97*%
%ADD98R,0.07493X0.10642*%
%ADD99R,0.14800X0.06300*%
%ADD100R,0.08674X0.10642*%
%ADD101R,0.02769X0.10052*%
%ADD102R,0.04343X0.09068*%
%ADD103R,0.13792X0.09068*%
%ADD104R,0.12611X0.16548*%
%ADD105R,0.09800X0.03300*%
%ADD106R,0.09800X0.04300*%
%ADD107C,0.05300*%
%ADD108C,0.05918*%
%ADD109C,0.05524*%
%ADD110C,0.00800*%
%ADD111C,0.11036*%
%ADD112C,0.12611*%
%ADD113C,0.13300*%
%ADD114O,0.05721X0.06706*%
%ADD115R,0.12611X0.12611*%
%ADD116C,0.10800*%
%ADD117R,0.09461X0.09461*%
%ADD118C,0.09461*%
%ADD119C,0.02572*%
%ADD120C,0.08674*%
%ADD121R,0.00800X0.00800*%
%ADD122C,0.06312*%
%ADD123R,0.06312X0.06312*%
%ADD124C,0.10642*%
%ADD125C,0.14567*%
%ADD126C,0.00394*%
%ADD127C,0.00197*%
D39*
X126900Y-468495D02*
X141467D01*
Y-480305D02*
Y-468495D01*
X111152Y-480305D02*
X141467D01*
X111152D02*
Y-468495D01*
X126900D01*
X273965Y-366327D02*
X290500D01*
X273965Y-394673D02*
Y-366327D01*
Y-394673D02*
X307035D01*
Y-366327D01*
X290500D02*
X307035D01*
X125878Y-440216D02*
X147531D01*
X125878D02*
Y-404783D01*
X173122D01*
Y-440216D02*
Y-404783D01*
X147531Y-440216D02*
X173122D01*
X387827Y-434000D02*
Y-417465D01*
X416173D01*
Y-450535D02*
Y-417465D01*
X387827Y-450535D02*
X416173D01*
X387827D02*
Y-434000D01*
X385965Y-353327D02*
X402500D01*
X385965Y-381673D02*
Y-353327D01*
Y-381673D02*
X419035D01*
Y-353327D01*
X402500D02*
X419035D01*
X281405Y-440967D02*
Y-426400D01*
X269595Y-440967D02*
X281405D01*
X269595D02*
Y-410652D01*
X281405D01*
Y-426400D02*
Y-410652D01*
X530973Y-313900D02*
Y-297365D01*
X502627D02*
X530973D01*
X502627Y-330435D02*
Y-297365D01*
Y-330435D02*
X530973D01*
Y-313900D01*
D126*
X126580Y-525948D02*
Y-522011D01*
X124611Y-523980D02*
X128548D01*
X118017Y-519059D02*
X135143D01*
X118017Y-528901D02*
X135143D01*
X118017D02*
Y-519059D01*
X135143Y-528901D02*
Y-519059D01*
X187250Y-488183D02*
Y-461017D01*
X155950Y-488183D02*
Y-461017D01*
Y-488183D02*
X187250D01*
X155950Y-461017D02*
X187250D01*
X169632Y-474600D02*
X173568D01*
X171600Y-476569D02*
Y-472632D01*
X196231Y-479800D02*
X200168D01*
X198200Y-481769D02*
Y-477832D01*
X193377Y-488658D02*
Y-470942D01*
X203023Y-488658D02*
Y-470942D01*
X193377Y-488658D02*
X203023D01*
X193377Y-470942D02*
X203023D01*
X844579Y-485063D02*
X854421D01*
X844579Y-467937D02*
X854421D01*
X844579Y-485063D02*
Y-467937D01*
X854421Y-485063D02*
Y-467937D01*
X849500Y-478469D02*
Y-474532D01*
X847532Y-476500D02*
X851468D01*
X1030000Y-591468D02*
Y-587532D01*
X1028032Y-589500D02*
X1031968D01*
X958531Y-474500D02*
X962469D01*
X960500Y-476469D02*
Y-472532D01*
X965323Y-483358D02*
Y-465642D01*
X955677Y-483358D02*
Y-465642D01*
X965323D01*
X955677Y-483358D02*
X965323D01*
X958531Y-492500D02*
X962469D01*
X960500Y-494468D02*
Y-490531D01*
X965323Y-501358D02*
Y-483642D01*
X955677Y-501358D02*
Y-483642D01*
X965323D01*
X955677Y-501358D02*
X965323D01*
X938531Y-475500D02*
X942468D01*
X940500Y-477468D02*
Y-473531D01*
X945323Y-484358D02*
Y-466642D01*
X935677Y-484358D02*
Y-466642D01*
X945323D01*
X935677Y-484358D02*
X945323D01*
X938531Y-493000D02*
X942468D01*
X940500Y-494969D02*
Y-491032D01*
X945323Y-501858D02*
Y-484142D01*
X935677Y-501858D02*
Y-484142D01*
X945323D01*
X935677Y-501858D02*
X945323D01*
X915032Y-475500D02*
X918968D01*
X917000Y-477468D02*
Y-473531D01*
X921823Y-484358D02*
Y-466642D01*
X912177Y-484358D02*
Y-466642D01*
X921823D01*
X912177Y-484358D02*
X921823D01*
X915032Y-493000D02*
X918968D01*
X917000Y-494969D02*
Y-491032D01*
X921823Y-501858D02*
Y-484142D01*
X912177Y-501858D02*
Y-484142D01*
X921823D01*
X912177Y-501858D02*
X921823D01*
X895032Y-475000D02*
X898969D01*
X897000Y-476968D02*
Y-473032D01*
X901823Y-483858D02*
Y-466142D01*
X892177Y-483858D02*
Y-466142D01*
X901823D01*
X892177Y-483858D02*
X901823D01*
X895032Y-492500D02*
X898969D01*
X897000Y-494468D02*
Y-490531D01*
X901823Y-501358D02*
Y-483642D01*
X892177Y-501358D02*
Y-483642D01*
X901823D01*
X892177Y-501358D02*
X901823D01*
X871500Y-499968D02*
Y-496032D01*
X869532Y-498000D02*
X873468D01*
X862642Y-493177D02*
X880358D01*
X862642Y-502823D02*
X880358D01*
X862642D02*
Y-493177D01*
X880358Y-502823D02*
Y-493177D01*
X887500Y-446969D02*
Y-443032D01*
X885532Y-445000D02*
X889468D01*
X878642Y-440177D02*
X896358D01*
X878642Y-449823D02*
X896358D01*
X878642D02*
Y-440177D01*
X896358Y-449823D02*
Y-440177D01*
X881532Y-477000D02*
X885468D01*
X883500Y-478968D02*
Y-475032D01*
X888323Y-485858D02*
Y-468142D01*
X878677Y-485858D02*
Y-468142D01*
X888323D01*
X878677Y-485858D02*
X888323D01*
X828000Y-499469D02*
Y-495532D01*
X826031Y-497500D02*
X829968D01*
X819142Y-492677D02*
X836858D01*
X819142Y-502323D02*
X836858D01*
X819142D02*
Y-492677D01*
X836858Y-502323D02*
Y-492677D01*
X842500Y-448969D02*
Y-445031D01*
X840532Y-447000D02*
X844468D01*
X833642Y-442177D02*
X851358D01*
X833642Y-451823D02*
X851358D01*
X833642D02*
Y-442177D01*
X851358Y-451823D02*
Y-442177D01*
X836532Y-479000D02*
X840469D01*
X838500Y-480969D02*
Y-477032D01*
X843323Y-487858D02*
Y-470142D01*
X833677Y-487858D02*
Y-470142D01*
X843323D01*
X833677Y-487858D02*
X843323D01*
X780532Y-475000D02*
X784469D01*
X782500Y-476968D02*
Y-473032D01*
X787323Y-483858D02*
Y-466142D01*
X777677Y-483858D02*
Y-466142D01*
X787323D01*
X777677Y-483858D02*
X787323D01*
X780532Y-492000D02*
X784469D01*
X782500Y-493968D02*
Y-490031D01*
X787323Y-500858D02*
Y-483142D01*
X777677Y-500858D02*
Y-483142D01*
X787323D01*
X777677Y-500858D02*
X787323D01*
X751031Y-474500D02*
X754969D01*
X753000Y-476469D02*
Y-472532D01*
X757823Y-483358D02*
Y-465642D01*
X748177Y-483358D02*
Y-465642D01*
X757823D01*
X748177Y-483358D02*
X757823D01*
X751031Y-492000D02*
X754969D01*
X753000Y-493968D02*
Y-490031D01*
X757823Y-500858D02*
Y-483142D01*
X748177Y-500858D02*
Y-483142D01*
X757823D01*
X748177Y-500858D02*
X757823D01*
X731032Y-474500D02*
X734969D01*
X733000Y-476469D02*
Y-472532D01*
X737823Y-483358D02*
Y-465642D01*
X728177Y-483358D02*
Y-465642D01*
X737823D01*
X728177Y-483358D02*
X737823D01*
X731032Y-492000D02*
X734969D01*
X733000Y-493968D02*
Y-490031D01*
X737823Y-500858D02*
Y-483142D01*
X728177Y-500858D02*
Y-483142D01*
X737823D01*
X728177Y-500858D02*
X737823D01*
X710532Y-474500D02*
X714468D01*
X712500Y-476469D02*
Y-472532D01*
X717323Y-483358D02*
Y-465642D01*
X707677Y-483358D02*
Y-465642D01*
X717323D01*
X707677Y-483358D02*
X717323D01*
X710532Y-492000D02*
X714468D01*
X712500Y-493968D02*
Y-490031D01*
X717323Y-500858D02*
Y-483142D01*
X707677Y-500858D02*
Y-483142D01*
X717323D01*
X707677Y-500858D02*
X717323D01*
X682531Y-348000D02*
X686469D01*
X684500Y-349969D02*
Y-346031D01*
X679677Y-356858D02*
Y-339142D01*
X689323Y-356858D02*
Y-339142D01*
X679677Y-356858D02*
X689323D01*
X679677Y-339142D02*
X689323D01*
X682531Y-367000D02*
X686469D01*
X684500Y-368969D02*
Y-365032D01*
X689323Y-375858D02*
Y-358142D01*
X679677Y-375858D02*
Y-358142D01*
X689323D01*
X679677Y-375858D02*
X689323D01*
X690531Y-473839D02*
X694468D01*
X692500Y-475807D02*
Y-471870D01*
X697323Y-482697D02*
Y-464980D01*
X687677Y-482697D02*
Y-464980D01*
X697323D01*
X687677Y-482697D02*
X697323D01*
X690531Y-492000D02*
X694468D01*
X692500Y-493968D02*
Y-490031D01*
X697323Y-500858D02*
Y-483142D01*
X687677Y-500858D02*
Y-483142D01*
X697323D01*
X687677Y-500858D02*
X697323D01*
X670031Y-474500D02*
X673969D01*
X672000Y-476469D02*
Y-472532D01*
X676823Y-483358D02*
Y-465642D01*
X667177Y-483358D02*
Y-465642D01*
X676823D01*
X667177Y-483358D02*
X676823D01*
X670031Y-492000D02*
X673969D01*
X672000Y-493968D02*
Y-490031D01*
X676823Y-500858D02*
Y-483142D01*
X667177Y-500858D02*
Y-483142D01*
X676823D01*
X667177Y-500858D02*
X676823D01*
X650531Y-474500D02*
X654468D01*
X652500Y-476469D02*
Y-472532D01*
X657323Y-483358D02*
Y-465642D01*
X647677Y-483358D02*
Y-465642D01*
X657323D01*
X647677Y-483358D02*
X657323D01*
X650531Y-492200D02*
X654468D01*
X652500Y-494169D02*
Y-490232D01*
X657323Y-501058D02*
Y-483342D01*
X647677Y-501058D02*
Y-483342D01*
X657323D01*
X647677Y-501058D02*
X657323D01*
X940579Y-445063D02*
X950421D01*
X940579Y-427937D02*
X950421D01*
X940579Y-445063D02*
Y-427937D01*
X950421Y-445063D02*
Y-427937D01*
X945500Y-438469D02*
Y-434531D01*
X943532Y-436500D02*
X947468D01*
X896979Y-442963D02*
X906821D01*
X896979Y-425837D02*
X906821D01*
X896979Y-442963D02*
Y-425837D01*
X906821Y-442963D02*
Y-425837D01*
X901900Y-436369D02*
Y-432432D01*
X899932Y-434400D02*
X903868D01*
X799079Y-435437D02*
X808921D01*
X799079Y-452563D02*
X808921D01*
Y-435437D01*
X799079Y-452563D02*
Y-435437D01*
X804000Y-445968D02*
Y-442031D01*
X802032Y-444000D02*
X805968D01*
X738858Y-428421D02*
Y-418579D01*
X755984Y-428421D02*
Y-418579D01*
X738858D02*
X755984D01*
X738858Y-428421D02*
X755984D01*
X745453Y-423500D02*
X749390D01*
X747421Y-425468D02*
Y-421531D01*
X699937Y-429421D02*
Y-419579D01*
X717063Y-429421D02*
Y-419579D01*
X699937D02*
X717063D01*
X699937Y-429421D02*
X717063D01*
X706531Y-424500D02*
X710468D01*
X708500Y-426469D02*
Y-422532D01*
X655937Y-429421D02*
Y-419579D01*
X673063Y-429421D02*
Y-419579D01*
X655937D02*
X673063D01*
X655937Y-429421D02*
X673063D01*
X662532Y-424500D02*
X666468D01*
X664500Y-426469D02*
Y-422532D01*
X965579Y-482863D02*
X975421D01*
X965579Y-465737D02*
X975421D01*
X965579Y-482863D02*
Y-465737D01*
X975421Y-482863D02*
Y-465737D01*
X970500Y-476268D02*
Y-472331D01*
X968532Y-474300D02*
X972468D01*
X965679Y-500563D02*
X975521D01*
X965679Y-483437D02*
X975521D01*
X965679Y-500563D02*
Y-483437D01*
X975521Y-500563D02*
Y-483437D01*
X970600Y-493968D02*
Y-490031D01*
X968631Y-492000D02*
X972569D01*
X945579Y-483563D02*
X955421D01*
X945579Y-466437D02*
X955421D01*
X945579Y-483563D02*
Y-466437D01*
X955421Y-483563D02*
Y-466437D01*
X950500Y-476968D02*
Y-473032D01*
X948532Y-475000D02*
X952468D01*
X945579Y-501063D02*
X955421D01*
X945579Y-483937D02*
X955421D01*
X945579Y-501063D02*
Y-483937D01*
X955421Y-501063D02*
Y-483937D01*
X950500Y-494468D02*
Y-490531D01*
X948532Y-492500D02*
X952468D01*
X922079Y-483563D02*
X931921D01*
X922079Y-466437D02*
X931921D01*
X922079Y-483563D02*
Y-466437D01*
X931921Y-483563D02*
Y-466437D01*
X927000Y-476968D02*
Y-473032D01*
X925031Y-475000D02*
X928969D01*
X922079Y-501063D02*
X931921D01*
X922079Y-483937D02*
X931921D01*
X922079Y-501063D02*
Y-483937D01*
X931921Y-501063D02*
Y-483937D01*
X927000Y-494468D02*
Y-490531D01*
X925031Y-492500D02*
X928969D01*
X902079Y-483563D02*
X911921D01*
X902079Y-466437D02*
X911921D01*
X902079Y-483563D02*
Y-466437D01*
X911921Y-483563D02*
Y-466437D01*
X907000Y-476968D02*
Y-473032D01*
X905031Y-475000D02*
X908969D01*
X902079Y-501063D02*
X911921D01*
X902079Y-483937D02*
X911921D01*
X902079Y-501063D02*
Y-483937D01*
X911921Y-501063D02*
Y-483937D01*
X907000Y-494468D02*
Y-490531D01*
X905031Y-492500D02*
X908969D01*
X1038563Y-627921D02*
Y-618079D01*
X1021437Y-627921D02*
Y-618079D01*
Y-627921D02*
X1038563D01*
X1021437Y-618079D02*
X1038563D01*
X1028032Y-623000D02*
X1031968D01*
X1030000Y-624968D02*
Y-621032D01*
X867579Y-441437D02*
X877421D01*
X867579Y-458563D02*
X877421D01*
Y-441437D01*
X867579Y-458563D02*
Y-441437D01*
X872500Y-451968D02*
Y-448032D01*
X870531Y-450000D02*
X874469D01*
X878579Y-450437D02*
X888421D01*
X878579Y-467563D02*
X888421D01*
Y-450437D01*
X878579Y-467563D02*
Y-450437D01*
X883500Y-460968D02*
Y-457031D01*
X881532Y-459000D02*
X885468D01*
X823079Y-440937D02*
X832921D01*
X823079Y-458063D02*
X832921D01*
Y-440937D01*
X823079Y-458063D02*
Y-440937D01*
X828000Y-451469D02*
Y-447532D01*
X826031Y-449500D02*
X829968D01*
X833579Y-452437D02*
X843421D01*
X833579Y-469563D02*
X843421D01*
Y-452437D01*
X833579Y-469563D02*
Y-452437D01*
X838500Y-462968D02*
Y-459031D01*
X836532Y-461000D02*
X840469D01*
X787579Y-483563D02*
X797421D01*
X787579Y-466437D02*
X797421D01*
X787579Y-483563D02*
Y-466437D01*
X797421Y-483563D02*
Y-466437D01*
X792500Y-476968D02*
Y-473032D01*
X790531Y-475000D02*
X794468D01*
X787579Y-500563D02*
X797421D01*
X787579Y-483437D02*
X797421D01*
X787579Y-500563D02*
Y-483437D01*
X797421Y-500563D02*
Y-483437D01*
X792500Y-493968D02*
Y-490031D01*
X790531Y-492000D02*
X794468D01*
X758079Y-483063D02*
X767921D01*
X758079Y-465937D02*
X767921D01*
X758079Y-483063D02*
Y-465937D01*
X767921Y-483063D02*
Y-465937D01*
X763000Y-476469D02*
Y-472532D01*
X761031Y-474500D02*
X764968D01*
X758079Y-500563D02*
X767921D01*
X758079Y-483437D02*
X767921D01*
X758079Y-500563D02*
Y-483437D01*
X767921Y-500563D02*
Y-483437D01*
X763000Y-493968D02*
Y-490031D01*
X761031Y-492000D02*
X764968D01*
X738079Y-483063D02*
X747921D01*
X738079Y-465937D02*
X747921D01*
X738079Y-483063D02*
Y-465937D01*
X747921Y-483063D02*
Y-465937D01*
X743000Y-476469D02*
Y-472532D01*
X741032Y-474500D02*
X744969D01*
X738079Y-500563D02*
X747921D01*
X738079Y-483437D02*
X747921D01*
X738079Y-500563D02*
Y-483437D01*
X747921Y-500563D02*
Y-483437D01*
X743000Y-493968D02*
Y-490031D01*
X741032Y-492000D02*
X744969D01*
X717579Y-483063D02*
X727421D01*
X717579Y-465937D02*
X727421D01*
X717579Y-483063D02*
Y-465937D01*
X727421Y-483063D02*
Y-465937D01*
X722500Y-476469D02*
Y-472532D01*
X720532Y-474500D02*
X724469D01*
X717579Y-500563D02*
X727421D01*
X717579Y-483437D02*
X727421D01*
X717579Y-500563D02*
Y-483437D01*
X727421Y-500563D02*
Y-483437D01*
X722500Y-493968D02*
Y-490031D01*
X720532Y-492000D02*
X724469D01*
X697579Y-482402D02*
X707421D01*
X697579Y-465276D02*
X707421D01*
X697579Y-482402D02*
Y-465276D01*
X707421Y-482402D02*
Y-465276D01*
X702500Y-475807D02*
Y-471870D01*
X700531Y-473839D02*
X704468D01*
X697579Y-500563D02*
X707421D01*
X697579Y-483437D02*
X707421D01*
X697579Y-500563D02*
Y-483437D01*
X707421Y-500563D02*
Y-483437D01*
X702500Y-493968D02*
Y-490031D01*
X700531Y-492000D02*
X704468D01*
X677079Y-483063D02*
X686921D01*
X677079Y-465937D02*
X686921D01*
X677079Y-483063D02*
Y-465937D01*
X686921Y-483063D02*
Y-465937D01*
X682000Y-476469D02*
Y-472532D01*
X680031Y-474500D02*
X683968D01*
X677079Y-500563D02*
X686921D01*
X677079Y-483437D02*
X686921D01*
X677079Y-500563D02*
Y-483437D01*
X686921Y-500563D02*
Y-483437D01*
X682000Y-493968D02*
Y-490031D01*
X680031Y-492000D02*
X683968D01*
X657079Y-483063D02*
X666921D01*
X657079Y-465937D02*
X666921D01*
X657079Y-483063D02*
Y-465937D01*
X666921Y-483063D02*
Y-465937D01*
X662000Y-476469D02*
Y-472532D01*
X660032Y-474500D02*
X663969D01*
X657079Y-500563D02*
X666921D01*
X657079Y-483437D02*
X666921D01*
X657079Y-500563D02*
Y-483437D01*
X666921Y-500563D02*
Y-483437D01*
X662000Y-493968D02*
Y-490031D01*
X660032Y-492000D02*
X663969D01*
X788531Y-298000D02*
X792469D01*
X790500Y-299969D02*
Y-296031D01*
X1017837Y-124421D02*
Y-114579D01*
X1034963Y-124421D02*
Y-114579D01*
X1017837D02*
X1034963D01*
X1017837Y-124421D02*
X1034963D01*
X1024432Y-119500D02*
X1028368D01*
X1026400Y-121468D02*
Y-117532D01*
X1026937Y-201921D02*
Y-192079D01*
X1044063Y-201921D02*
Y-192079D01*
X1026937D02*
X1044063D01*
X1026937Y-201921D02*
X1044063D01*
X1033531Y-197000D02*
X1037469D01*
X1035500Y-198969D02*
Y-195031D01*
X569937Y-244921D02*
Y-235079D01*
X587063Y-244921D02*
Y-235079D01*
X569937D02*
X587063D01*
X569937Y-244921D02*
X587063D01*
X576532Y-240000D02*
X580469D01*
X578500Y-241968D02*
Y-238032D01*
X1153032Y-425000D02*
X1156968D01*
X1155000Y-426968D02*
Y-423032D01*
X1133937Y-447146D02*
Y-402854D01*
X1176063Y-447146D02*
Y-402854D01*
X1133937Y-447146D02*
X1176063D01*
X1133937Y-402854D02*
X1176063D01*
X1308031Y-425000D02*
X1311969D01*
X1310000Y-426968D02*
Y-423032D01*
X1288937Y-447146D02*
Y-402854D01*
X1331063Y-447146D02*
Y-402854D01*
X1288937Y-447146D02*
X1331063D01*
X1288937Y-402854D02*
X1331063D01*
X1067750Y-207669D02*
Y-203732D01*
X1065782Y-205701D02*
X1069719D01*
X1062428Y-139154D02*
Y-135216D01*
X1060459Y-137185D02*
X1064396D01*
X1364000Y-207469D02*
Y-203532D01*
X1362031Y-205500D02*
X1365969D01*
X616702Y-259554D02*
Y-255616D01*
X614734Y-257585D02*
X618671D01*
X910532Y-62000D02*
X914468D01*
X912500Y-63968D02*
Y-60031D01*
X917323Y-70858D02*
Y-53142D01*
X907677Y-70858D02*
Y-53142D01*
X917323D01*
X907677Y-70858D02*
X917323D01*
X478532Y-99000D02*
X482469D01*
X480500Y-100969D02*
Y-97031D01*
X485323Y-107858D02*
Y-90142D01*
X475677Y-107858D02*
Y-90142D01*
X485323D01*
X475677Y-107858D02*
X485323D01*
X529032Y-199000D02*
X532969D01*
X531000Y-200969D02*
Y-197031D01*
X535823Y-207858D02*
Y-190142D01*
X526177Y-207858D02*
Y-190142D01*
X535823D01*
X526177Y-207858D02*
X535823D01*
X579032Y-99000D02*
X582969D01*
X581000Y-100969D02*
Y-97031D01*
X585823Y-107858D02*
Y-90142D01*
X576177Y-107858D02*
Y-90142D01*
X585823D01*
X576177Y-107858D02*
X585823D01*
X629032Y-199000D02*
X632969D01*
X631000Y-200969D02*
Y-197031D01*
X635823Y-207858D02*
Y-190142D01*
X626177Y-207858D02*
Y-190142D01*
X635823D01*
X626177Y-207858D02*
X635823D01*
X679032Y-99000D02*
X682969D01*
X681000Y-100969D02*
Y-97031D01*
X685823Y-107858D02*
Y-90142D01*
X676177Y-107858D02*
Y-90142D01*
X685823D01*
X676177Y-107858D02*
X685823D01*
X729032Y-199000D02*
X732969D01*
X731000Y-200969D02*
Y-197031D01*
X735823Y-207858D02*
Y-190142D01*
X726177Y-207858D02*
Y-190142D01*
X735823D01*
X726177Y-207858D02*
X735823D01*
X779032Y-99000D02*
X782969D01*
X781000Y-100969D02*
Y-97031D01*
X785823Y-107858D02*
Y-90142D01*
X776177Y-107858D02*
Y-90142D01*
X785823D01*
X776177Y-107858D02*
X785823D01*
X829031Y-199000D02*
X832969D01*
X831000Y-200969D02*
Y-197031D01*
X835823Y-207858D02*
Y-190142D01*
X826177Y-207858D02*
Y-190142D01*
X835823D01*
X826177Y-207858D02*
X835823D01*
X970831Y-62100D02*
X974769D01*
X972800Y-64069D02*
Y-60132D01*
X977623Y-70958D02*
Y-53242D01*
X967977Y-70958D02*
Y-53242D01*
X977623D01*
X967977Y-70958D02*
X977623D01*
X1030532Y-62000D02*
X1034468D01*
X1032500Y-63968D02*
Y-60031D01*
X1037323Y-70858D02*
Y-53142D01*
X1027677Y-70858D02*
Y-53142D01*
X1037323D01*
X1027677Y-70858D02*
X1037323D01*
X1090532Y-62000D02*
X1094468D01*
X1092500Y-63968D02*
Y-60031D01*
X1097323Y-70858D02*
Y-53142D01*
X1087677Y-70858D02*
Y-53142D01*
X1097323D01*
X1087677Y-70858D02*
X1097323D01*
X1150531Y-62000D02*
X1154469D01*
X1152500Y-63968D02*
Y-60031D01*
X1157323Y-70858D02*
Y-53142D01*
X1147677Y-70858D02*
Y-53142D01*
X1157323D01*
X1147677Y-70858D02*
X1157323D01*
X1210532Y-62000D02*
X1214468D01*
X1212500Y-63968D02*
Y-60031D01*
X1217323Y-70858D02*
Y-53142D01*
X1207677Y-70858D02*
Y-53142D01*
X1217323D01*
X1207677Y-70858D02*
X1217323D01*
X1270531Y-62000D02*
X1274469D01*
X1272500Y-63968D02*
Y-60031D01*
X1277323Y-70858D02*
Y-53142D01*
X1267677Y-70858D02*
Y-53142D01*
X1277323D01*
X1267677Y-70858D02*
X1277323D01*
X1330532Y-62000D02*
X1334468D01*
X1332500Y-63968D02*
Y-60031D01*
X1337323Y-70858D02*
Y-53142D01*
X1327677Y-70858D02*
Y-53142D01*
X1337323D01*
X1327677Y-70858D02*
X1337323D01*
X1390532Y-62000D02*
X1394468D01*
X1392500Y-63968D02*
Y-60031D01*
X1397323Y-70858D02*
Y-53142D01*
X1387677Y-70858D02*
Y-53142D01*
X1397323D01*
X1387677Y-70858D02*
X1397323D01*
X1450531Y-62000D02*
X1454469D01*
X1452500Y-63968D02*
Y-60031D01*
X1457323Y-70858D02*
Y-53142D01*
X1447677Y-70858D02*
Y-53142D01*
X1457323D01*
X1447677Y-70858D02*
X1457323D01*
X1510532Y-62000D02*
X1514468D01*
X1512500Y-63968D02*
Y-60031D01*
X1517323Y-70858D02*
Y-53142D01*
X1507677Y-70858D02*
Y-53142D01*
X1517323D01*
X1507677Y-70858D02*
X1517323D01*
X1570531Y-62000D02*
X1574469D01*
X1572500Y-63968D02*
Y-60031D01*
X1577323Y-70858D02*
Y-53142D01*
X1567677Y-70858D02*
Y-53142D01*
X1577323D01*
X1567677Y-70858D02*
X1577323D01*
X493032Y-20000D02*
X496969D01*
X495000Y-21969D02*
Y-18032D01*
X489488Y-30925D02*
Y-9075D01*
X500512Y-30925D02*
Y-9075D01*
X489488Y-30925D02*
X500512D01*
X489488Y-9075D02*
X500512D01*
X550531Y-117500D02*
X554468D01*
X552500Y-119468D02*
Y-115532D01*
X546988Y-128425D02*
Y-106575D01*
X558012Y-128425D02*
Y-106575D01*
X546988Y-128425D02*
X558012D01*
X546988Y-106575D02*
X558012D01*
X598032Y-17500D02*
X601968D01*
X600000Y-19468D02*
Y-15531D01*
X594488Y-28425D02*
Y-6575D01*
X605512Y-28425D02*
Y-6575D01*
X594488Y-28425D02*
X605512D01*
X594488Y-6575D02*
X605512D01*
X650531Y-115000D02*
X654468D01*
X652500Y-116969D02*
Y-113031D01*
X646988Y-125925D02*
Y-104075D01*
X658012Y-125925D02*
Y-104075D01*
X646988Y-125925D02*
X658012D01*
X646988Y-104075D02*
X658012D01*
X698032Y-15000D02*
X701968D01*
X700000Y-16969D02*
Y-13032D01*
X694488Y-25925D02*
Y-4075D01*
X705512Y-25925D02*
Y-4075D01*
X694488Y-25925D02*
X705512D01*
X694488Y-4075D02*
X705512D01*
X753031Y-117500D02*
X756968D01*
X755000Y-119468D02*
Y-115532D01*
X749488Y-128425D02*
Y-106575D01*
X760512Y-128425D02*
Y-106575D01*
X749488Y-128425D02*
X760512D01*
X749488Y-106575D02*
X760512D01*
X798032Y-17500D02*
X801968D01*
X800000Y-19468D02*
Y-15531D01*
X794488Y-28425D02*
Y-6575D01*
X805512Y-28425D02*
Y-6575D01*
X794488Y-28425D02*
X805512D01*
X794488Y-6575D02*
X805512D01*
X853032Y-120000D02*
X856968D01*
X855000Y-121968D02*
Y-118032D01*
X849488Y-130925D02*
Y-109075D01*
X860512Y-130925D02*
Y-109075D01*
X849488Y-130925D02*
X860512D01*
X849488Y-109075D02*
X860512D01*
X489291Y-28976D02*
X500709D01*
X489291Y-51024D02*
X500709D01*
Y-28976D01*
X489291Y-51024D02*
Y-28976D01*
X495000Y-41969D02*
Y-38032D01*
X493032Y-40000D02*
X496969D01*
X546791Y-128976D02*
X558209D01*
X546791Y-151024D02*
X558209D01*
Y-128976D01*
X546791Y-151024D02*
Y-128976D01*
X552500Y-141969D02*
Y-138031D01*
X550531Y-140000D02*
X554468D01*
X594291Y-28976D02*
X605709D01*
X594291Y-51024D02*
X605709D01*
Y-28976D01*
X594291Y-51024D02*
Y-28976D01*
X600000Y-41969D02*
Y-38032D01*
X598032Y-40000D02*
X601968D01*
X646791Y-126476D02*
X658209D01*
X646791Y-148524D02*
X658209D01*
Y-126476D01*
X646791Y-148524D02*
Y-126476D01*
X652500Y-139469D02*
Y-135531D01*
X650531Y-137500D02*
X654468D01*
X694291Y-26476D02*
X705709D01*
X694291Y-48524D02*
X705709D01*
Y-26476D01*
X694291Y-48524D02*
Y-26476D01*
X700000Y-39469D02*
Y-35531D01*
X698032Y-37500D02*
X701968D01*
X749291Y-128976D02*
X760709D01*
X749291Y-151024D02*
X760709D01*
Y-128976D01*
X749291Y-151024D02*
Y-128976D01*
X755000Y-141969D02*
Y-138031D01*
X753031Y-140000D02*
X756968D01*
X794291Y-28976D02*
X805709D01*
X794291Y-51024D02*
X805709D01*
Y-28976D01*
X794291Y-51024D02*
Y-28976D01*
X800000Y-41969D02*
Y-38032D01*
X798032Y-40000D02*
X801968D01*
X849291Y-131476D02*
X860709D01*
X849291Y-153524D02*
X860709D01*
Y-131476D01*
X849291Y-153524D02*
Y-131476D01*
X855000Y-144468D02*
Y-140532D01*
X853032Y-142500D02*
X856968D01*
X1042031Y-420900D02*
X1045969D01*
X1044000Y-422868D02*
Y-418931D01*
X1039079Y-429463D02*
Y-412337D01*
X1048921Y-429463D02*
Y-412337D01*
X1039079Y-429463D02*
X1048921D01*
X1039079Y-412337D02*
X1048921D01*
X1040431Y-504500D02*
X1044368D01*
X1042400Y-506468D02*
Y-502531D01*
X1047321Y-513063D02*
Y-495937D01*
X1037479Y-513063D02*
Y-495937D01*
X1047321D01*
X1037479Y-513063D02*
X1047321D01*
X628532Y-608500D02*
X632469D01*
X630500Y-610468D02*
Y-606531D01*
X625579Y-617063D02*
Y-599937D01*
X635421Y-617063D02*
Y-599937D01*
X625579Y-617063D02*
X635421D01*
X625579Y-599937D02*
X635421D01*
X569531Y-606000D02*
X573468D01*
X571500Y-607969D02*
Y-604032D01*
X566579Y-614563D02*
Y-597437D01*
X576421Y-614563D02*
Y-597437D01*
X566579Y-614563D02*
X576421D01*
X566579Y-597437D02*
X576421D01*
X628532Y-591000D02*
X632469D01*
X630500Y-592969D02*
Y-589032D01*
X625579Y-599563D02*
Y-582437D01*
X635421Y-599563D02*
Y-582437D01*
X625579Y-599563D02*
X635421D01*
X625579Y-582437D02*
X635421D01*
X604500Y-625468D02*
Y-621531D01*
X602531Y-623500D02*
X606468D01*
X595937Y-628421D02*
X613063D01*
X595937Y-618579D02*
X613063D01*
Y-628421D02*
Y-618579D01*
X595937Y-628421D02*
Y-618579D01*
X634000Y-579468D02*
Y-575531D01*
X632031Y-577500D02*
X635968D01*
X625437Y-572579D02*
X642563D01*
X625437Y-582421D02*
X642563D01*
X625437D02*
Y-572579D01*
X642563Y-582421D02*
Y-572579D01*
X289500Y-360968D02*
Y-357031D01*
X287531Y-359000D02*
X291469D01*
X280937Y-363921D02*
X298063D01*
X280937Y-354079D02*
X298063D01*
Y-363921D02*
Y-354079D01*
X280937Y-363921D02*
Y-354079D01*
X178532Y-413000D02*
X182468D01*
X180500Y-414968D02*
Y-411031D01*
X185421Y-421563D02*
Y-404437D01*
X175579Y-421563D02*
Y-404437D01*
X185421D01*
X175579Y-421563D02*
X185421D01*
X381532Y-391000D02*
X385469D01*
X383500Y-392969D02*
Y-389032D01*
X388421Y-399563D02*
Y-382437D01*
X378579Y-399563D02*
Y-382437D01*
X388421D01*
X378579Y-399563D02*
X388421D01*
X392657Y-413354D02*
X412343D01*
X392657Y-382646D02*
X412343D01*
X392657Y-413354D02*
Y-382646D01*
X412343Y-413354D02*
Y-382646D01*
X402500Y-399969D02*
Y-396031D01*
X400531Y-398000D02*
X404468D01*
X229950Y-448483D02*
Y-421317D01*
X261250Y-448483D02*
Y-421317D01*
X229950D02*
X261250D01*
X229950Y-448483D02*
X261250D01*
X243632Y-434900D02*
X247568D01*
X245600Y-436868D02*
Y-432932D01*
X333500Y-486469D02*
Y-482531D01*
X331532Y-484500D02*
X335469D01*
X324642Y-489323D02*
X342358D01*
X324642Y-479677D02*
X342358D01*
Y-489323D02*
Y-479677D01*
X324642Y-489323D02*
Y-479677D01*
X218831Y-434400D02*
X222768D01*
X220800Y-436369D02*
Y-432432D01*
X225623Y-443258D02*
Y-425542D01*
X215977Y-443258D02*
Y-425542D01*
X225623D01*
X215977Y-443258D02*
X225623D01*
X1022500Y-473969D02*
Y-470031D01*
X1020531Y-472000D02*
X1024469D01*
X1017400Y-417469D02*
Y-413531D01*
X1015431Y-415500D02*
X1019368D01*
X598531Y-591500D02*
X602468D01*
X600500Y-593469D02*
Y-589532D01*
X394642Y-520823D02*
Y-511177D01*
X412358Y-520823D02*
Y-511177D01*
X394642D02*
X412358D01*
X394642Y-520823D02*
X412358D01*
X401532Y-516000D02*
X405469D01*
X403500Y-517969D02*
Y-514032D01*
X389917Y-525350D02*
X417083D01*
X389917Y-556650D02*
X417083D01*
Y-525350D01*
X389917Y-556650D02*
Y-525350D01*
X403500Y-542969D02*
Y-539032D01*
X401532Y-541000D02*
X405469D01*
X1358589Y-137579D02*
Y-133642D01*
X1356621Y-135610D02*
X1360557D01*
X1312937Y-122421D02*
Y-112579D01*
X1330063Y-122421D02*
Y-112579D01*
X1312937D02*
X1330063D01*
X1312937Y-122421D02*
X1330063D01*
X1319532Y-117500D02*
X1323468D01*
X1321500Y-119468D02*
Y-115532D01*
X582437Y-312421D02*
Y-302579D01*
X599563Y-312421D02*
Y-302579D01*
X582437D02*
X599563D01*
X582437Y-312421D02*
X599563D01*
X589032Y-307500D02*
X592969D01*
X591000Y-309469D02*
Y-305532D01*
X621533Y-318530D02*
Y-314593D01*
X619565Y-316561D02*
X623502D01*
X819079Y-302937D02*
X828921D01*
X819079Y-320063D02*
X828921D01*
Y-302937D01*
X819079Y-320063D02*
Y-302937D01*
X824000Y-313469D02*
Y-309531D01*
X822031Y-311500D02*
X825968D01*
X708579Y-373563D02*
X718421D01*
X708579Y-356437D02*
X718421D01*
X708579Y-373563D02*
Y-356437D01*
X718421Y-373563D02*
Y-356437D01*
X713500Y-366968D02*
Y-363032D01*
X711531Y-365000D02*
X715469D01*
X738031Y-370000D02*
X741968D01*
X740000Y-371969D02*
Y-368032D01*
X815079Y-374063D02*
X824921D01*
X815079Y-356937D02*
X824921D01*
X815079Y-374063D02*
Y-356937D01*
X824921Y-374063D02*
Y-356937D01*
X820000Y-367469D02*
Y-363531D01*
X818032Y-365500D02*
X821968D01*
X844532Y-370500D02*
X848468D01*
X846500Y-372468D02*
Y-368531D01*
X1195563Y-447421D02*
Y-437579D01*
X1178437Y-447421D02*
Y-437579D01*
Y-447421D02*
X1195563D01*
X1178437Y-437579D02*
X1195563D01*
X1185032Y-442500D02*
X1188968D01*
X1187000Y-444468D02*
Y-440531D01*
X1350563Y-447921D02*
Y-438079D01*
X1333437Y-447921D02*
Y-438079D01*
Y-447921D02*
X1350563D01*
X1333437Y-438079D02*
X1350563D01*
X1340032Y-443000D02*
X1343968D01*
X1342000Y-444969D02*
Y-441032D01*
X1424563Y-525921D02*
Y-516079D01*
X1407437Y-525921D02*
Y-516079D01*
Y-525921D02*
X1424563D01*
X1407437Y-516079D02*
X1424563D01*
X1414032Y-521000D02*
X1417968D01*
X1416000Y-522968D02*
Y-519031D01*
X1458063Y-525921D02*
Y-516079D01*
X1440937Y-525921D02*
Y-516079D01*
Y-525921D02*
X1458063D01*
X1440937Y-516079D02*
X1458063D01*
X1447532Y-521000D02*
X1451468D01*
X1449500Y-522968D02*
Y-519031D01*
X1391563Y-525921D02*
Y-516079D01*
X1374437Y-525921D02*
Y-516079D01*
Y-525921D02*
X1391563D01*
X1374437Y-516079D02*
X1391563D01*
X1381032Y-521000D02*
X1384968D01*
X1383000Y-522968D02*
Y-519031D01*
X1261063Y-525921D02*
Y-516079D01*
X1243937Y-525921D02*
Y-516079D01*
Y-525921D02*
X1261063D01*
X1243937Y-516079D02*
X1261063D01*
X1250531Y-521000D02*
X1254469D01*
X1252500Y-522968D02*
Y-519031D01*
X1294563Y-525921D02*
Y-516079D01*
X1277437Y-525921D02*
Y-516079D01*
Y-525921D02*
X1294563D01*
X1277437Y-516079D02*
X1294563D01*
X1284031Y-521000D02*
X1287969D01*
X1286000Y-522968D02*
Y-519031D01*
X1229063Y-525921D02*
Y-516079D01*
X1211937Y-525921D02*
Y-516079D01*
Y-525921D02*
X1229063D01*
X1211937Y-516079D02*
X1229063D01*
X1218532Y-521000D02*
X1222468D01*
X1220500Y-522968D02*
Y-519031D01*
X1196063Y-525921D02*
Y-516079D01*
X1178937Y-525921D02*
Y-516079D01*
Y-525921D02*
X1196063D01*
X1178937Y-516079D02*
X1196063D01*
X1185532Y-521000D02*
X1189468D01*
X1187500Y-522968D02*
Y-519031D01*
X1164063Y-526421D02*
Y-516579D01*
X1146937Y-526421D02*
Y-516579D01*
Y-526421D02*
X1164063D01*
X1146937Y-516579D02*
X1164063D01*
X1153531Y-521500D02*
X1157469D01*
X1155500Y-523468D02*
Y-519531D01*
X1132063Y-526421D02*
Y-516579D01*
X1114937Y-526421D02*
Y-516579D01*
Y-526421D02*
X1132063D01*
X1114937Y-516579D02*
X1132063D01*
X1121531Y-521500D02*
X1125469D01*
X1123500Y-523468D02*
Y-519531D01*
X1099563Y-526421D02*
Y-516579D01*
X1082437Y-526421D02*
Y-516579D01*
Y-526421D02*
X1099563D01*
X1082437Y-516579D02*
X1099563D01*
X1089032Y-521500D02*
X1092968D01*
X1091000Y-523468D02*
Y-519531D01*
X1326063Y-525921D02*
Y-516079D01*
X1308937Y-525921D02*
Y-516079D01*
Y-525921D02*
X1326063D01*
X1308937Y-516079D02*
X1326063D01*
X1315532Y-521000D02*
X1319468D01*
X1317500Y-522968D02*
Y-519031D01*
X1359063Y-525921D02*
Y-516079D01*
X1341937Y-525921D02*
Y-516079D01*
Y-525921D02*
X1359063D01*
X1341937Y-516079D02*
X1359063D01*
X1348532Y-521000D02*
X1352468D01*
X1350500Y-522968D02*
Y-519031D01*
X640063Y-518421D02*
Y-508579D01*
X622937Y-518421D02*
Y-508579D01*
Y-518421D02*
X640063D01*
X622937Y-508579D02*
X640063D01*
X629531Y-513500D02*
X633468D01*
X631500Y-515469D02*
Y-511531D01*
X652900Y-350068D02*
Y-346131D01*
X650932Y-348100D02*
X654869D01*
X644337Y-343179D02*
X661463D01*
X644337Y-353021D02*
X661463D01*
X644337D02*
Y-343179D01*
X661463Y-353021D02*
Y-343179D01*
X661142Y-348823D02*
Y-339177D01*
X678858Y-348823D02*
Y-339177D01*
X661142D02*
X678858D01*
X661142Y-348823D02*
X678858D01*
X668032Y-344000D02*
X671969D01*
X670000Y-345969D02*
Y-342032D01*
X601000Y-537968D02*
Y-534031D01*
X599031Y-536000D02*
X602969D01*
X1325137Y-201221D02*
Y-191379D01*
X1342263Y-201221D02*
Y-191379D01*
X1325137D02*
X1342263D01*
X1325137Y-201221D02*
X1342263D01*
X1331732Y-196300D02*
X1335668D01*
X1333700Y-198268D02*
Y-194332D01*
X467450Y-348283D02*
Y-321117D01*
X498750Y-348283D02*
Y-321117D01*
X467450D02*
X498750D01*
X467450Y-348283D02*
X498750D01*
X481132Y-334700D02*
X485069D01*
X483100Y-336668D02*
Y-332732D01*
X458200Y-345669D02*
Y-341732D01*
X456231Y-343700D02*
X460169D01*
X449637Y-348621D02*
X466763D01*
X449637Y-338779D02*
X466763D01*
Y-348621D02*
Y-338779D01*
X449637Y-348621D02*
Y-338779D01*
D127*
X1007953Y-563516D02*
X1052047D01*
X1007953Y-615484D02*
X1052047D01*
X1007953D02*
Y-563516D01*
X1052047Y-615484D02*
Y-563516D01*
X764516Y-320047D02*
Y-275953D01*
X816484Y-320047D02*
Y-275953D01*
X764516Y-320047D02*
X816484D01*
X764516Y-275953D02*
X816484D01*
X1047672Y-219087D02*
X1087829D01*
X1047672Y-192315D02*
X1087829D01*
X1047672Y-219087D02*
Y-192315D01*
X1087829Y-219087D02*
Y-192315D01*
X1036443Y-159232D02*
X1088412D01*
X1036443Y-115138D02*
X1088412D01*
X1036443Y-159232D02*
Y-115138D01*
X1088412Y-159232D02*
Y-115138D01*
X1343921Y-218886D02*
X1384079D01*
X1343921Y-192114D02*
X1384079D01*
X1343921Y-218886D02*
Y-192114D01*
X1384079Y-218886D02*
Y-192114D01*
X590718Y-279632D02*
X642687D01*
X590718Y-235538D02*
X642687D01*
X590718Y-279632D02*
Y-235538D01*
X642687Y-279632D02*
Y-235538D01*
X996516Y-449953D02*
X1048484D01*
X996516Y-494047D02*
X1048484D01*
Y-449953D01*
X996516Y-494047D02*
Y-449953D01*
X997321Y-402114D02*
X1037479D01*
X997321Y-428886D02*
X1037479D01*
Y-402114D01*
X997321Y-428886D02*
Y-402114D01*
X622547Y-617484D02*
Y-565516D01*
X578453Y-617484D02*
Y-565516D01*
Y-617484D02*
X622547D01*
X578453Y-565516D02*
X622547D01*
X1332605Y-157658D02*
X1384573D01*
X1332605Y-113563D02*
X1384573D01*
X1332605Y-157658D02*
Y-113563D01*
X1384573Y-157658D02*
Y-113563D01*
X601454Y-329947D02*
X641612D01*
X601454Y-303176D02*
X641612D01*
X601454Y-329947D02*
Y-303176D01*
X641612Y-329947D02*
Y-303176D01*
X760079Y-383386D02*
Y-356614D01*
X719921Y-383386D02*
Y-356614D01*
X760079D01*
X719921Y-383386D02*
X760079D01*
X866579Y-383886D02*
Y-357114D01*
X826421Y-383886D02*
Y-357114D01*
X866579D01*
X826421Y-383886D02*
X866579D01*
X578953Y-561984D02*
X623047D01*
X578953Y-510016D02*
X623047D01*
Y-561984D02*
Y-510016D01*
X578953Y-561984D02*
Y-510016D01*
M02*
